<svg xmlns="http://www.w3.org/2000/svg" width="768" height="768" style="shape-rendering:geometricPrecision;text-rendering:geometricPrecision;image-rendering:optimizeQuality;fill-rule:evenodd;clip-rule:evenodd"><path fill="#fefefe" d="M-.5-.5h768v768H-.5V-.5Z" style="opacity:1"/><path fill="#fdf0d2" d="M297.5 97.5a215.803 215.803 0 0 1-9-22 43.123 43.123 0 0 0-13-1c.098 2.053-.569 3.72-2 5-.256-2.293.077-4.46 1-6.5a38.06 38.06 0 0 1 15 .5c4.609 7.12 7.275 15.12 8 24Z" style="opacity:1"/><path fill="#fcf7e5" d="M273.5 79.5a1019.68 1019.68 0 0 1-27 69c.039-6.858 2.206-12.858 6.5-18a45.984 45.984 0 0 0 2-10c4.721-6.162 7.054-13.162 7-21a9.454 9.454 0 0 1-2.5 1.5 158.246 158.246 0 0 1-3.5 8.5l-.5-4.5a111.506 111.506 0 0 0 2.5-12.5c.519-1.016 1.353-1.682 2.5-2 4.756 1.305 7.089-.695 7-6h3v-5h3Z" style="opacity:1"/><path fill="#b0865a" d="M297.5 97.5v2a5085.798 5085.798 0 0 0 30 76 8629.813 8629.813 0 0 0 53 138l2 7c-1.301 1.384-1.301 2.884 0 4.5 23.504.168 46.837.668 70 1.5h-72a50.465 50.465 0 0 0-4.5-16 1582.99 1582.99 0 0 0-19.5-48 1818.292 1818.292 0 0 0-17-45 50259.15 50259.15 0 0 1-21-54 138612.035 138612.035 0 0 0-32-86h-9c-1.993 5.99-3.993 11.99-6 18-2.237 4.034-3.904 8.368-5 13a1011.262 1011.262 0 0 0-26 67 1491.169 1491.169 0 0 0-19 47v1a378.131 378.131 0 0 0-13 34 2015.711 2015.711 0 0 0-32 82 2040.543 2040.543 0 0 0-22 55v1a421.68 421.68 0 0 0-10 25v1l-17 42c.215-1.679-.452-2.679-2-3a87.406 87.406 0 0 0 5-14 257.571 257.571 0 0 0 11-28c.904-.709 1.237-1.709 1-3a6668.671 6668.671 0 0 0 67-172 1959.768 1959.768 0 0 0 37-95 1019.68 1019.68 0 0 0 27-69c1.431-1.28 2.098-2.947 2-5a43.123 43.123 0 0 1 13 1 215.803 215.803 0 0 0 9 22Z" style="opacity:1"/><path fill="#fdfefc" d="M318.5 163.5c.452 3.663.952 7.33 1.5 11a139.8 139.8 0 0 1 5 9 45.984 45.984 0 0 1 2 10c1.131-1.104 1.965-.771 2.5 1-1.571 2.523-1.071 4.523 1.5 6 .553 5.066 2.053 9.732 4.5 14-1.25.077-2.083.744-2.5 2-1.699-.906-3.533-1.239-5.5-1l-2 7v1a88.402 88.402 0 0 0-7 11 15.265 15.265 0 0 0-5.5 3c-2.228-1.613-4.728-2.28-7.5-2-3.171-.936-5.838-2.603-8-5-3.639-1.18-6.806-.18-9.5 3l-1 9c-3.111 3.844-4.944 8.177-5.5 13-.982.641-1.982 1.307-3 2-.594-5.137-2.761-9.471-6.5-13-.492-5.476-2.159-10.476-5-15a209.043 209.043 0 0 1-5.5-18c-1.915-.284-3.581.049-5 1h-1a12.93 12.93 0 0 0-5 .5 140.089 140.089 0 0 1-12 7.5c-4.126-2.587-6.126-1.254-6 4-3.131-.592-5.464.408-7 3a29.351 29.351 0 0 1-2 12h-1c-2.1 3.254-3.767 6.92-5 11-1.205 1.638-2.538 1.971-4 1a154.455 154.455 0 0 0 8-28v-1c2.323-2.186 4.157-4.853 5.5-8a237.414 237.414 0 0 1 13-33c.495-1.973.662-3.973.5-6 2.618-3.631 5.285-7.298 8-11a110.576 110.576 0 0 1 9-22.5 272.181 272.181 0 0 0 4-12.5c-1.607-2.142-1.273-3.809 1-5 .18-4.567 1.847-8.4 5-11.5a11.187 11.187 0 0 1-1-4.5c1.096-4.632 2.763-8.966 5-13h4a113.113 113.113 0 0 1 3.5-14 14.962 14.962 0 0 1 3.5-3c4.041 6.514 6.708 13.514 8 21h-3c.593 5.296 2.259 10.296 5 15-1.812 3.83-2.312 7.83-1.5 12 1.011.837 2.178 1.17 3.5 1a40.914 40.914 0 0 1 .5-9c.974 2.378 1.641 2.044 2-1a8.43 8.43 0 0 1 .5 4 6.846 6.846 0 0 1 4 1 456.31 456.31 0 0 0 4 12.5c-1.81 4.286-2.31 8.786-1.5 13.5 1.566.561 2.899-.106 4-2 .861 3.356 2.694 6.023 5.5 8a34.251 34.251 0 0 1 1.5 8c1.011.837 2.178 1.17 3.5 1Z" style="opacity:1"/><path fill="#fcf6e6" d="M318.5 163.5c-1.322.17-2.489-.163-3.5-1a34.251 34.251 0 0 0-1.5-8c-2.806-1.977-4.639-4.644-5.5-8-1.101 1.894-2.434 2.561-4 2-.81-4.714-.31-9.214 1.5-13.5a456.31 456.31 0 0 1-4-12.5 6.846 6.846 0 0 0-4-1 8.43 8.43 0 0 0-.5-4c-.359 3.044-1.026 3.378-2 1a40.914 40.914 0 0 0-.5 9c-1.322.17-2.489-.163-3.5-1-.812-4.17-.312-8.17 1.5-12-2.741-4.704-4.407-9.704-5-15h3c-1.292-7.486-3.959-14.486-8-21a14.962 14.962 0 0 0-3.5 3 113.113 113.113 0 0 0-3.5 14h-4c2.007-6.01 4.007-12.01 6-18h9c10.692 28.706 21.359 57.373 32 86Z" style="opacity:1"/><path fill="#fcf8eb" d="M297.5 99.5c1.175-.219 2.175.114 3 1 1.097 4.913 3.263 9.246 6.5 13 1.363-2.284 2.863-2.451 4.5-.5-2.335 1.52-2.168 3.02.5 4.5.495-1.973.662-3.973.5-6h7c.577 3.05-.59 5.05-3.5 6-.499 6.522.668 12.688 3.5 18.5-.252 2.394-1.252 4.394-3 6 .998 4.089 3.332 7.256 7 9.5a31.116 31.116 0 0 1 1 11h4v-3h4c-2.14 5.037-3.14 10.37-3 16h-2a5085.798 5085.798 0 0 1-30-76Z" style="opacity:1"/><path fill="#faf6df" d="M266.5 108.5c.019 1.56.352 3.06 1 4.5-3.153 3.1-4.82 6.933-5 11.5-2.273 1.191-2.607 2.858-1 5a272.181 272.181 0 0 1-4 12.5 110.576 110.576 0 0 0-9 22.5 1680.816 1680.816 0 0 0-8 11 1011.262 1011.262 0 0 1 26-67Z" style="opacity:1"/><path fill="#fdefd3" d="M240.5 175.5a18.453 18.453 0 0 1-.5 6 237.414 237.414 0 0 0-13 33c-1.343 3.147-3.177 5.814-5.5 8a1491.169 1491.169 0 0 1 19-47Z" style="opacity:1"/><path fill="#fbecd7" d="M318.5 163.5a50259.15 50259.15 0 0 0 21 54l-4-3c-2.447-4.268-3.947-8.934-4.5-14-2.571-1.477-3.071-3.477-1.5-6-.535-1.771-1.369-2.104-2.5-1a45.984 45.984 0 0 0-2-10 139.8 139.8 0 0 0-5-9 436.267 436.267 0 0 1-1.5-11Z" style="opacity:1"/><path fill="#fcf4e0" d="M246.5 148.5a1959.768 1959.768 0 0 1-37 95 52.016 52.016 0 0 1 1.5-10c1.666.84 1.833.34.5-1.5 2.461-2.297 3.794-5.13 4-8.5-3.023.395-4.023-.605-3-3a14.72 14.72 0 0 1 5-1.5l-2-1c1.546-1.44 2.379-3.273 2.5-5.5 3.465-2.618 5.632-6.118 6.5-10.5.301-2.68-.033-5.514-1-8.5l1-2 2 4c.685-2.281.851-4.614.5-7 3.297-1.679 4.297-4.346 3-8-2.123-.466-3.623-1.633-4.5-3.5a3.943 3.943 0 0 1 1-2 12.93 12.93 0 0 1 5-.5c-.321 3.38.679 4.213 3 2.5a3.943 3.943 0 0 1-1-2c2.903-4.909 3.569-10.076 2-15.5 2.821.184 4.488-1.149 5-4 .825-.886 1.825-1.219 3-1-.045-2.577.955-4.577 3-6Z" style="opacity:1"/><path fill="#fef2dd" d="M255.5 212.5c.131.876-.202 1.543-1 2a122.828 122.828 0 0 1-13 6.5c-.881.708-1.547 1.542-2 2.5a109.094 109.094 0 0 0-14 4c1.536-2.592 3.869-3.592 7-3-.126-5.254 1.874-6.587 6-4a140.089 140.089 0 0 0 12-7.5 12.93 12.93 0 0 1 5-.5Z" style="opacity:1"/><path fill="#d59862" d="M335.5 229.5v2c-2.523-1.865-4.189-4.365-5-7.5-1.765-.64-3.432-.473-5 .5v-2c1.327-1.3 2.66-2.633 4-4a85.98 85.98 0 0 0 6 11Z" style="opacity:1"/><path fill="#d3843f" d="M255.5 212.5h5c.718 7.111 2.885 13.778 6.5 20a417.322 417.322 0 0 0 9 29c1 1.333 2 1.333 3 0a33.052 33.052 0 0 1 2.5-6l3-2c-.568 3.737-2.235 6.904-5 9.5-1.941.743-3.774.576-5.5-.5.117-6.981-2.216-12.981-7-18a308.364 308.364 0 0 1-9.5-27.5c-4.986-.174-8.986 1.826-12 6a18.453 18.453 0 0 1-6 .5c.453-.958 1.119-1.792 2-2.5a122.828 122.828 0 0 0 13-6.5c.798-.457 1.131-1.124 1-2Z" style="opacity:1"/><path fill="#fbe6c8" d="M256.5 212.5c1.419-.951 3.085-1.284 5-1a209.043 209.043 0 0 0 5.5 18c2.841 4.524 4.508 9.524 5 15 3.739 3.529 5.906 7.863 6.5 13a185.977 185.977 0 0 1 3-2 33.052 33.052 0 0 0-2.5 6c-1 1.333-2 1.333-3 0a417.322 417.322 0 0 1-9-29c-3.615-6.222-5.782-12.889-6.5-20h-4Z" style="opacity:1"/><path fill="#f5d3af" d="M239.5 223.5v1c-2.904 2.283-6.238 3.783-10 4.5-1.938 2.47-3.104 5.304-3.5 8.5-.708.881-1.542 1.547-2.5 2a29.351 29.351 0 0 0 2-12 109.094 109.094 0 0 1 14-4Z" style="opacity:1"/><path fill="#fbe3c1" d="M335.5 229.5a28.926 28.926 0 0 1 3.5 5 54.107 54.107 0 0 0 2.5 10c5.323 8.311 8.656 17.311 10 27-1.29-.558-2.123-1.558-2.5-3a394.592 394.592 0 0 0-13.5-33v-6Z" style="opacity:1"/><path fill="#fcebcb" d="M325.5 223.5v1a205.155 205.155 0 0 0-9 17c-2.643.867-4.977.2-7-2h-2l-2-4c2.772-.28 5.272.387 7.5 2a15.265 15.265 0 0 1 5.5-3 88.402 88.402 0 0 1 7-11Z" style="opacity:1"/><path fill="#e77717" d="M284.5 253.5v-1a53.622 53.622 0 0 0 6.5-8 63.089 63.089 0 0 0 3.5-10 104 104 0 0 1 13 5h2c.74 4.651 3.406 6.151 8 4.5a149.665 149.665 0 0 0 11-19.5c1.717 1.168 2.384 2.835 2 5a185.422 185.422 0 0 1-1 11c1.951.273 3.451-.393 4.5-2l1 9c5.161 2.877 6.661 7.21 4.5 13-1.503-.552-3.169-.552-5 0a8.43 8.43 0 0 0 .5 4 542.042 542.042 0 0 0 6.5 8c.341 6.726 3.341 9.393 9 8 3.504 2.374 3.837 5.207 1 8.5 1.603.29 3.103 1.123 4.5 2.5a95.623 95.623 0 0 1 5.5 12h1a34.455 34.455 0 0 0 2.5 11c3.53 6.401 7.03 12.734 10.5 19l2 2v4c-.167 16.003 0 32.003.5 48l1.5 1.5c5.323.499 10.656.666 16 .5.326 34.073-.007 68.073-1 102-5.195-.321-10.195.013-15 1-.667 0-1 .333-1 1-.667 16.505-1.333 33.172-2 50-3.984 1.407-7.817 1.074-11.5-1a440.68 440.68 0 0 0-9-27 40.914 40.914 0 0 1-.5-9h-3a306.266 306.266 0 0 1-3-13 28.931 28.931 0 0 0-4-1.5c-36.318-.127-72.652-.294-109-.5l-19 1a110.72 110.72 0 0 0-4 19c-1.164 3.617-2.997 6.95-5.5 10a18.453 18.453 0 0 0-.5 6h-6a96.873 96.873 0 0 1 1 16c-3.341.657-5.341-.676-6-4-1 .333-1.667 1-2 2a840.983 840.983 0 0 1-71 .5c1.829-.273 3.329-1.107 4.5-2.5.89-3.206.557-6.206-1-9a56.863 56.863 0 0 1-7.5 5 38.581 38.581 0 0 1-1.5-13c.368-1.41 1.201-2.41 2.5-3a16.873 16.873 0 0 1 1 8h3c-.613-3.469.721-5.469 4-6-.061-3.23-1.728-5.063-5-5.5-1.289-4.695.378-6.195 5-4.5-.166-5.344.001-10.677.5-16 2.041.923 4.208 1.256 6.5 1 .38-2.198-.287-3.865-2-5-1.134-2.466-1.301-5.133-.5-8a148.669 148.669 0 0 0 8-21c.497-2.31.663-4.643.5-7a115.712 115.712 0 0 1 5.5-9 504.625 504.625 0 0 1 7.5-27c1.322.17 2.489-.163 3.5-1a97.638 97.638 0 0 0 3-13c2.248-2.851 3.082-6.185 2.5-10a400.493 400.493 0 0 1 3-5c5.051-9.823 9.051-20.156 12-31 .12-3.078 1.12-5.745 3-8 1.557-2.654 3.39-5.32 5.5-8-.085-6.21 1.749-11.543 5.5-16 2.591-.754 4.424-2.421 5.5-5a42.254 42.254 0 0 1 0-8 28.53 28.53 0 0 0 4.5-9c2.052-2.903 3.386-2.57 4 1 .929-1.189 1.262-2.522 1-4h-3c-.163-2.357.003-4.69.5-7 1.879-2.027 3.046-4.36 3.5-7h7a82.182 82.182 0 0 1-1.5-13l1-3c3.528 8.006 5.695 7.506 6.5-1.5-2.004-2.841-2.504-6.007-1.5-9.5a32.087 32.087 0 0 1 3.5-4c-2.399-5.613-.899-10.28 4.5-14-.968-7.338 1.865-12.338 8.5-15a514.367 514.367 0 0 0 3-4v-1a18.453 18.453 0 0 0 6-.5c3.014-4.174 7.014-6.174 12-6a308.364 308.364 0 0 0 9.5 27.5c4.784 5.019 7.117 11.019 7 18 1.726 1.076 3.559 1.243 5.5.5 2.765-2.596 4.432-5.763 5-9.5Z" style="opacity:1"/><path fill="#fcedd6" d="M297.5 230.5c-2.792-.048-4.625 1.285-5.5 4-2.502 6.019-5.002 12.019-7.5 18v1l-3 2c.556-4.823 2.389-9.156 5.5-13l1-9c2.694-3.18 5.861-4.18 9.5-3Z" style="opacity:1"/><path fill="#faf8f0" d="m335.5 214.5 4 3a1818.292 1818.292 0 0 1 17 45 2890.731 2890.731 0 0 1 21 60h-3c.215-1.679-.452-2.679-2-3-2.92-2.162-4.587-5.162-5-9a991.685 991.685 0 0 1-10-24c-.852-5.577-2.852-10.577-6-15-1.344-9.689-4.677-18.689-10-27a54.107 54.107 0 0 1-2.5-10 28.926 28.926 0 0 0-3.5-5 85.98 85.98 0 0 1-6-11c-1.34 1.367-2.673 2.7-4 4l2-7c1.967-.239 3.801.094 5.5 1 .417-1.256 1.25-1.923 2.5-2Z" style="opacity:1"/><path fill="#d28843" d="M335.5 231.5v4c-.915-2.586-2.582-4.586-5-6 .384-2.165-.283-3.832-2-5a149.665 149.665 0 0 1-11 19.5c-4.594 1.651-7.26.151-8-4.5 2.023 2.2 4.357 2.867 7 2a205.155 205.155 0 0 1 9-17c1.568-.973 3.235-1.14 5-.5.811 3.135 2.477 5.635 5 7.5Z" style="opacity:1"/><path fill="#cd8747" d="M297.5 230.5c2.162 2.397 4.829 4.064 8 5l2 4a104 104 0 0 0-13-5 63.089 63.089 0 0 1-3.5 10 53.622 53.622 0 0 1-6.5 8c2.498-5.981 4.998-11.981 7.5-18 .875-2.715 2.708-4.048 5.5-4Z" style="opacity:1"/><path fill="#fcecd1" d="M221.5 223.5a154.455 154.455 0 0 1-8 28c1.462.971 2.795.638 4-1 1.233-4.08 2.9-7.746 5-11-.732 5.595-2.065 10.929-4 16-3.385 4.751-5.385 10.085-6 16a480.344 480.344 0 0 1-5 11c.897-8.021 3.23-15.521 7-22.5-.542-2.255-1.709-4.088-3.5-5.5a81.316 81.316 0 0 1-2.5 3 378.131 378.131 0 0 1 13-34Z" style="opacity:1"/><path fill="#df7920" d="M330.5 229.5c2.418 1.414 4.085 3.414 5 6a394.592 394.592 0 0 1 13.5 33c.377 1.442 1.21 2.442 2.5 3a18.453 18.453 0 0 0 .5 6 92.647 92.647 0 0 0 5.5 9 132.646 132.646 0 0 0 4 17 95.623 95.623 0 0 0-5.5-12c-1.397-1.377-2.897-2.21-4.5-2.5 2.837-3.293 2.504-6.126-1-8.5-5.659 1.393-8.659-1.274-9-8a542.042 542.042 0 0 1-6.5-8 8.43 8.43 0 0 1-.5-4c1.831-.552 3.497-.552 5 0 2.161-5.79.661-10.123-4.5-13l-1-9c-1.049 1.607-2.549 2.273-4.5 2 .442-3.654.776-7.321 1-11Z" style="opacity:1"/><path fill="#dd7a24" d="M239.5 224.5a514.367 514.367 0 0 1-3 4c-6.635 2.662-9.468 7.662-8.5 15-5.399 3.72-6.899 8.387-4.5 14a32.087 32.087 0 0 0-3.5 4c-1.004 3.493-.504 6.659 1.5 9.5-.805 9.006-2.972 9.506-6.5 1.5l-1 3a82.182 82.182 0 0 0 1.5 13h-7c-.454 2.64-1.621 4.973-3.5 7a24.935 24.935 0 0 0-.5 7h3c.262 1.478-.071 2.811-1 4-.614-3.57-1.948-3.903-4-1a28.53 28.53 0 0 1-4.5 9 42.254 42.254 0 0 0 0 8c-1.076 2.579-2.909 4.246-5.5 5 .614-1.783 1.78-3.116 3.5-4 .269-6.927 1.436-13.593 3.5-20 2.415-2.84 3.748-6.173 4-10a42.832 42.832 0 0 1 4-11 480.344 480.344 0 0 0 5-11c.996.086 1.829-.248 2.5-1 2.017-4.747 3.183-9.747 3.5-15 1.935-5.071 3.268-10.405 4-16h1c.958-.453 1.792-1.119 2.5-2 .396-3.196 1.562-6.03 3.5-8.5 3.762-.717 7.096-2.217 10-4.5Z" style="opacity:1"/><path fill="#d0843f" d="M218.5 255.5c-.317 5.253-1.483 10.253-3.5 15-.671.752-1.504 1.086-2.5 1 .615-5.915 2.615-11.249 6-16Z" style="opacity:1"/><path fill="#fcefd4" d="M327.5 175.5h2c3.054 4.519 5.054 9.519 6 15a6.846 6.846 0 0 0 4 1 58.049 58.049 0 0 0 3 19 251.375 251.375 0 0 1 11 29c5.519 7.483 8.519 15.65 9 24.5a196.609 196.609 0 0 1 9.5 24.5c3.51 4.368 5.344 9.368 5.5 15 1.175-.219 2.175.114 3 1a67.97 67.97 0 0 0 3 10 5.727 5.727 0 0 1-3-1 8629.813 8629.813 0 0 1-53-138Z" style="opacity:1"/><path fill="#fcf7e7" d="M207.5 282.5a42.832 42.832 0 0 0-4 11c-2.415 2.84-3.748 6.173-4 10a1406.414 1406.414 0 0 0-16 40c-2.186 1.323-3.686 3.323-4.5 6a132.054 132.054 0 0 1-2.5 11 60.552 60.552 0 0 1-6 14c.224-3.704.39-7.371.5-11-1.405 1.231-2.571 2.564-3.5 4 .069-2.584 1.235-4.584 3.5-6 .897-3.652 1.73-7.319 2.5-11 .368-1.41 1.201-2.41 2.5-3 .497-2.646.664-5.313.5-8a2015.711 2015.711 0 0 1 32-82 81.316 81.316 0 0 0 2.5-3c1.791 1.412 2.958 3.245 3.5 5.5-3.77 6.979-6.103 14.479-7 22.5Z" style="opacity:1"/><path fill="#f1c392" d="M351.5 271.5c3.148 4.423 5.148 9.423 6 15a92.647 92.647 0 0 1-5.5-9 18.453 18.453 0 0 1-.5-6Z" style="opacity:1"/><path fill="#fcf1d7" d="M209.5 243.5a6668.671 6668.671 0 0 1-67 172 32.462 32.462 0 0 1 .5-8c1.861-5.826 4.528-11.159 8-16a89.816 89.816 0 0 1 9.5-28.5l-1-1a4.934 4.934 0 0 1 3-.5c-.163-2.357.003-4.69.5-7a139.722 139.722 0 0 1 9.5-17.5c-1.054-1.388-1.22-2.888-.5-4.5a6.547 6.547 0 0 0 3-3c3.399-11.105 7.566-21.772 12.5-32a3.647 3.647 0 0 0-1-1.5c3.591-4.516 5.591-9.682 6-15.5 4.936-9.265 8.436-18.932 10.5-29 2.845-2.322 5.012-4.988 6.5-8Z" style="opacity:1"/><path fill="#d47c31" d="M293.5 303.5a198.969 198.969 0 0 0-4-11c-3.502-2.62-7.002-2.62-10.5 0a72.259 72.259 0 0 0-4 8c-.824 6.646-2.324 12.979-4.5 19 1.318-7.954 2.651-15.954 4-24a339.845 339.845 0 0 0 4-9c2.966-.39 5.632.277 8 2a6.846 6.846 0 0 1 4-1c-.236 2.726.597 5.059 2.5 7 .498 2.982.665 5.982.5 9Z" style="opacity:1"/><path fill="#daa167" d="M357.5 286.5a991.685 991.685 0 0 0 10 24c-2.414-1.84-4.081-4.173-5-7h-1a132.646 132.646 0 0 1-4-17Z" style="opacity:1"/><path fill="#dea163" d="M203.5 293.5c-.252 3.827-1.585 7.16-4 10 .252-3.827 1.585-7.16 4-10Z" style="opacity:1"/><path fill="#e0a36c" d="M289.5 292.5a198.969 198.969 0 0 1 4 11c1.892 5.802 2.892 11.802 3 18a1369.947 1369.947 0 0 1-5-16 262.857 262.857 0 0 0-2-13Z" style="opacity:1"/><path fill="#f2cda4" d="M289.5 292.5a262.857 262.857 0 0 1 2 13l-2-3c.295-3.577-.705-6.743-3-9.5-2.269-.758-4.436-.591-6.5.5-3.762 8.212-5.929 16.878-6.5 26a79.691 79.691 0 0 0-6 13c.557-4.552 1.557-8.885 3-13 2.176-6.021 3.676-12.354 4.5-19a72.259 72.259 0 0 1 4-8c3.498-2.62 6.998-2.62 10.5 0Z" style="opacity:1"/><path fill="#d3833b" d="M362.5 303.5c.919 2.827 2.586 5.16 5 7 .413 3.838 2.08 6.838 5 9a56.306 56.306 0 0 0 3 14c-3.47-6.266-6.97-12.599-10.5-19a34.455 34.455 0 0 1-2.5-11Z" style="opacity:1"/><path fill="#feebc8" d="M380.5 313.5c.891.61 1.891.943 3 1-.329 2.728.337 5.062 2 7a25706.63 25706.63 0 0 0 227 1.5c.916.278 1.582.778 2 1.5a1589.38 1589.38 0 0 1-23-1h-208c.237-1.291-.096-2.291-1-3l-2-7Z" style="opacity:1"/><path fill="#ba8156" d="M382.5 320.5c.904.709 1.237 1.709 1 3h208c3.048 1.619 6.381 2.619 10 3h-149a2434.836 2434.836 0 0 0-70-1.5c-1.301-1.616-1.301-3.116 0-4.5Z" style="opacity:1"/><path fill="#fcf5dc" d="M671.5 363.5c-12.396-22.695-31.396-35.695-57-39-.418-.722-1.084-1.222-2-1.5a25706.63 25706.63 0 0 1-227-1.5c75.904.332 151.738-.002 227.5-1a42.911 42.911 0 0 0 11.5 5.5l14 2a24.275 24.275 0 0 0 3.5 3.5 458.314 458.314 0 0 0 13.5 7.5c2.357 2.938 5.024 5.438 8 7.5a28.043 28.043 0 0 1 1.5 5l4 2a54.874 54.874 0 0 1 2.5 10Z" style="opacity:1"/><path fill="#fdf4d9" d="M356.5 262.5a1582.99 1582.99 0 0 1 19.5 48 50.465 50.465 0 0 1 4.5 16h221a63.681 63.681 0 0 1 13 3 3514.504 3514.504 0 0 0-152.5 0l-83-2-1.5 1c2.794 3.912 4.127 8.245 4 13v44l-2-47c-.432-1.21-1.099-2.21-2-3l-2-2a56.306 56.306 0 0 1-3-14c1.548.321 2.215 1.321 2 3h3a2890.731 2890.731 0 0 0-21-60Z" style="opacity:1"/><path fill="#fcfcf9" d="M614.5 329.5a41.73 41.73 0 0 1 9 1v3c3.265-.201 5.931.966 8 3.5a33.225 33.225 0 0 1-14-.5l1-2-27-2a6801.062 6801.062 0 0 0-202-.5c-.556.383-.889.883-1 1.5-4.015-.224-4.681.943-2 3.5-2.353 2.142-3.353 4.808-3 8 .129 1.981.796 3.647 2 5l-1.5 1.5c-.905 7.525-.405 14.858 1.5 22a17.142 17.142 0 0 1-1 5.5c2.667 2.24 2.167 3.74-1.5 4.5a873.708 873.708 0 0 0-1.5-42c.127-4.755-1.206-9.088-4-13l1.5-1 83 2a3514.504 3514.504 0 0 1 152.5 0Z" style="opacity:1"/><path fill="#fcf6e2" d="M623.5 330.5c11.646 1.823 21.646 6.823 30 15-3.85-1.601-7.516-3.768-11-6.5-8.988-1.197-9.988.636-3 5.5-5.664-1.074-10.998-2.741-16-5a9377.021 9377.021 0 0 0-24-4c-4.482-.826-9.149-1.326-14-1.5a2649.949 2649.949 0 0 0-126 .5v43a916.16 916.16 0 0 1-1.5-43c-1 1.333-2 1.333-3 0-.708.881-1.542 1.547-2.5 2 0-1.333-.667-2-2-2h-62v-1c.111-.617.444-1.117 1-1.5a6801.062 6801.062 0 0 1 202 .5l27 2-1 2a33.225 33.225 0 0 0 14 .5c-2.069-2.534-4.735-3.701-8-3.5v-3Z" style="opacity:1"/><path fill="#fedcba" d="M459.5 334.5a2649.949 2649.949 0 0 1 126-.5c4.851.174 9.518.674 14 1.5h-15a3843.432 3843.432 0 0 0-124-1h-1Z" style="opacity:1"/><path fill="#fdeacf" d="M450.5 334.5c1.333 0 2 .667 2 2a668.166 668.166 0 0 0 1 50c4.202-.317 8.202.017 12 1a84.902 84.902 0 0 1-13-.5 11.333 11.333 0 0 1-1.5-3.5c-.5-16.33-.667-32.663-.5-49Z" style="opacity:1"/><path fill="#db9966" d="M460.5 334.5c41.503-.332 82.837.001 124 1h-123c-.167 13.004 0 26.004.5 39l1.5 1.5c3.986.499 7.986.666 12 .5v1a55.155 55.155 0 0 1-14.5-1 881.746 881.746 0 0 1-.5-42Z" style="opacity:1"/><path fill="#d38d4c" d="M199.5 303.5c-2.064 6.407-3.231 13.073-3.5 20-1.72.884-2.886 2.217-3.5 4-3.751 4.457-5.585 9.79-5.5 16-2.11 2.68-3.943 5.346-5.5 8l2-8a1406.414 1406.414 0 0 1 16-40Z" style="opacity:1"/><path fill="#fdfcf2" d="m459.5 377.5 2 1c4.134.985 8.468 1.318 13 1v121a1439.524 1439.524 0 0 0-16-1.5c-.837-1.011-1.17-2.178-1-3.5a32.462 32.462 0 0 0 8-.5c.752-.671 1.086-1.504 1-2.5v-2a1737.33 1737.33 0 0 0 .5-102c-.383-.556-.883-.889-1.5-1-3.798-.983-7.798-1.317-12-1a668.166 668.166 0 0 1-1-50c.958-.453 1.792-1.119 2.5-2 1 1.333 2 1.333 3 0a916.16 916.16 0 0 0 1.5 43Z" style="opacity:1"/><path fill="#da7927" d="M584.5 335.5h5c11.014 2.496 22.347 3.829 34 4 5.002 2.259 10.336 3.926 16 5v1l5 5a41.541 41.541 0 0 0-8 1c.262-1.478-.071-2.811-1-4a137.04 137.04 0 0 0-22-7.5c-50-.667-100-.667-150 0a189.814 189.814 0 0 0-.5 33.5c4.538.325 8.705 1.325 12.5 3a72.367 72.367 0 0 1-12-.5l-1.5-1.5a760.316 760.316 0 0 1-.5-39h123Z" style="opacity:1"/><path fill="#d69955" d="M589.5 335.5h10a9377.021 9377.021 0 0 1 24 4c-11.653-.171-22.986-1.504-34-4Z" style="opacity:1"/><path fill="#f4c191" d="M296.5 323.5c3.351 4.658 5.018 9.991 5 16a1369.947 1369.947 0 0 1-5-16Z" style="opacity:1"/><path fill="#e1781e" d="M393.5 336.5h55a664.474 664.474 0 0 0 1 51c-1.984.016-2.984-.984-3-3 .092-14.257.092-28.59 0-43-16.172.631-32.172-.036-48-2-1.199 10.275-1.199 20.275 0 30a37.138 37.138 0 0 1-4.5-2 481.165 481.165 0 0 1-.5-31Z" style="opacity:1"/><path fill="#d89355" d="M267.5 335.5c-2.733 6.901-4.733 13.901-6 21v-10a28.877 28.877 0 0 1 3.5-10c.671-.752 1.504-1.086 2.5-1Z" style="opacity:1"/><path fill="#b28556" d="M315.5 428.5h-64l18-70a1909.28 1909.28 0 0 1 14-48 3.647 3.647 0 0 1 1.5 1 5046.464 5046.464 0 0 1 30.5 117Z" style="opacity:1"/><path fill="#fcfdfa" d="M310.5 420.5v4c-16.904-.11-33.904-.11-51 0a132.987 132.987 0 0 1 5.5-29l2-2a645.706 645.706 0 0 0 1.5-16 747.27 747.27 0 0 1 11-42c1.943-1.895 3.443-4.228 4.5-7a117.452 117.452 0 0 1 6 28 88.87 88.87 0 0 1 7 20c.141 7.591 1.475 14.924 4 22 .414.457.914.791 1.5 1a2887.07 2887.07 0 0 0 5.5 19c.417 1.256 1.25 1.923 2.5 2Z" style="opacity:1"/><path fill="#fcf2d7" d="M310.5 420.5c-1.25-.077-2.083-.744-2.5-2a2887.07 2887.07 0 0 1-5.5-19 3.647 3.647 0 0 1-1.5-1c-2.525-7.076-3.859-14.409-4-22a88.87 88.87 0 0 0-7-20 117.452 117.452 0 0 0-6-28c-1.057 2.772-2.557 5.105-4.5 7a83.776 83.776 0 0 1 4.5-15 5517.714 5517.714 0 0 1 26.5 100Z" style="opacity:1"/><path fill="#d47e32" d="M293.5 303.5c3.418 5.682 4.918 12.015 4.5 19 1.158.498 1.991 1.331 2.5 2.5a40.827 40.827 0 0 1 3.5 15.5 14.506 14.506 0 0 1 4 5 779.143 779.143 0 0 1 6 30 41.668 41.668 0 0 0 5.5 9.5c-1.494 2.639-2.161 5.472-2 8.5a27.641 27.641 0 0 1-3-8c-1.574-1.602-2.241-3.602-2-6a475.78 475.78 0 0 0-11-39v-1c.018-6.009-1.649-11.342-5-16v-2c-.108-6.198-1.108-12.198-3-18Z" style="opacity:1"/><path fill="#fadeba" d="m183.5 343.5-2 8c-1.88 2.255-2.88 4.922-3 8l-2 1a132.054 132.054 0 0 0 2.5-11c.814-2.677 2.314-4.677 4.5-6Z" style="opacity:1"/><path fill="#e77717" d="M644.5 350.5c3.671 5.336 7.338 10.67 11 16 4.043 6.646 4.71 13.646 2 21a55.285 55.285 0 0 0 2 11c1.469-2.798 2.302-5.798 2.5-9 1.269 12.825-1.231 24.825-7.5 36-3.875.205-5.541 2.205-5 6a9.86 9.86 0 0 0-6 1c.825.886 1.825 1.219 3 1v4c0 .667-.333 1-1 1a9.86 9.86 0 0 0-6 1c-.936 1.474-2.27 2.474-4 3-.738 3.629-.571 7.296.5 11 3.996 4.327 6.663 9.327 8 15 4.865 3.397 7.365 8.064 7.5 14a18.08 18.08 0 0 1 3.5 2c.653 4.652 2.82 8.318 6.5 11-.334 2.991.666 5.324 3 7-.086.996.248 1.829 1 2.5l4.5 1.5c1.44-.648 2.94-.981 4.5-1v22h-3a15.418 15.418 0 0 1-1 7 265.066 265.066 0 0 1-46 0c-3.047-1.375-4.38-3.708-4-7h-4a154.722 154.722 0 0 0 3 11.5c-1.077.47-2.077.303-3-.5a692.773 692.773 0 0 0-7-10c-.607-5.586-2.94-10.253-7-14-.146-5.94-1.813-11.44-5-16.5 2.279-2.706 2.279-5.539 0-8.5-1.771.535-2.104 1.369-1 2.5-.667.667-1.333.667-2 0-2.078-4.008-4.744-7.508-8-10.5v-2a12.93 12.93 0 0 0-.5-5c-3.641-3.951-5.641-8.617-6-14-2.148-1.305-3.648-3.138-4.5-5.5a122.832 122.832 0 0 0-34-.5 4.457 4.457 0 0 1-1.5 2c-.667 15-.667 30 0 45 .374.916.874 1.75 1.5 2.5 4.253.2 8.42.7 12.5 1.5l.5 19c-.004 6.704-.67 13.037-2 19h-90c-.167-12.338 0-24.671.5-37a80.465 80.465 0 0 0 15-3c.831-41.502.665-82.835-.5-124 0-.667-.333-1-1-1 0-.667-.333-1-1-1v-1c-3.795-1.675-7.962-2.675-12.5-3-.82-11.243-.653-22.41.5-33.5 50-.667 100-.667 150 0a137.04 137.04 0 0 1 22 7.5c.929 1.189 1.262 2.522 1 4a41.541 41.541 0 0 1 8-1Z" style="opacity:1"/><path fill="#e77717" d="M393.5 336.5c-.166 10.339 0 20.672.5 31a37.138 37.138 0 0 0 4.5 2c-1.199-9.725-1.199-19.725 0-30 15.828 1.964 31.828 2.631 48 2 .092 14.41.092 28.743 0 43 .016 2.016 1.016 3.016 3 3-.086.996.248 1.829 1 2.5 4.655.499 9.321.666 14 .5v100a98.432 98.432 0 0 0-14 .5 9.568 9.568 0 0 0-3 3 633.075 633.075 0 0 1 1 49.5 600.937 600.937 0 0 0-49 1h-8a246.01 246.01 0 0 1-.5-38l1.5-1.5 15-1a11.333 11.333 0 0 0 3.5-1.5 3719.39 3719.39 0 0 0 0-122c-.278-.916-.778-1.582-1.5-2 0-.667-.333-1-1-1 .086-.996-.248-1.829-1-2.5a66.24 66.24 0 0 1-15.5-.5 284.232 284.232 0 0 1-1.5-38h3Z" style="opacity:1"/><path fill="#cf792f" d="M465.5 388.5v1c.332 33.171-.002 66.171-1 99v-98a98.432 98.432 0 0 1-14-.5c-.752-.671-1.086-1.504-1-2.5a664.474 664.474 0 0 1-1-51h-58a284.232 284.232 0 0 0 1.5 38 66.24 66.24 0 0 0 15.5.5c.752.671 1.086 1.504 1 2.5h-18a452.669 452.669 0 0 1-1-42h60a747.727 747.727 0 0 0 1 53h15Z" style="opacity:1"/><path fill="#db9f6a" d="M388.5 334.5h62c-.167 16.337 0 32.67.5 49a11.333 11.333 0 0 0 1.5 3.5c4.321.499 8.654.666 13 .5v1h-15a747.727 747.727 0 0 1-1-53h-60a452.669 452.669 0 0 0 1 42h-2v-43Z" style="opacity:1"/><path fill="#eab37c" d="M377.5 335.5c.901.79 1.568 1.79 2 3v48l-2-47v-4Z" style="opacity:1"/><path fill="#fafbf4" d="m289.5 302.5 2 3a1369.947 1369.947 0 0 0 5 16v2a1369.947 1369.947 0 0 0 5 16v1a167.727 167.727 0 0 1 2.5 18 68.302 68.302 0 0 1 6.5 18c.6 7.805 1.933 15.472 4 23h-3a158.698 158.698 0 0 1-6-21.5c-.84-1.171-1.673-2.338-2.5-3.5-.961-11.135-3.294-21.135-7-30-1.883-13.841-5.883-26.841-12-39-2.27 1.227-4.103 2.894-5.5 5-1.611-4.581-.778-8.581 2.5-12a26.67 26.67 0 0 0 6.5 1.5c.566.995 1.233 1.828 2 2.5Z" style="opacity:1"/><path fill="#f7d8b2" d="M301.5 340.5a475.78 475.78 0 0 1 11 39l-2-3a68.302 68.302 0 0 0-6.5-18 167.727 167.727 0 0 0-2.5-18Z" style="opacity:1"/><path fill="#fedfba" d="m379.5 338.5 2 47 16 2h-17c-.667 0-1-.333-1-1v-48Z" style="opacity:1"/><path fill="#fdf1d8" d="M176.5 339.5a32.462 32.462 0 0 1-.5 8c-1.299.59-2.132 1.59-2.5 3a325.633 325.633 0 0 1-2.5 11c-2.265 1.416-3.431 3.416-3.5 6a504.37 504.37 0 0 0-7.5 21c-1.103 2.753-2.936 4.753-5.5 6a2040.543 2040.543 0 0 1 22-55Z" style="opacity:1"/><path fill="#d8975e" d="M178.5 359.5c-2.949 10.844-6.949 21.177-12 31a75.247 75.247 0 0 1 4-16 60.552 60.552 0 0 0 6-14l2-1Z" style="opacity:1"/><path fill="#d49255" d="M644.5 350.5c2.914 1.406 5.414 3.406 7.5 6 2.327 2.988 4.66 5.988 7 9 .958 5.045 2.791 9.712 5.5 14a119.826 119.826 0 0 1 .5 26c-.232 1.237-.732 2.237-1.5 3a111.305 111.305 0 0 0 .5-24 98.966 98.966 0 0 1-5-15c-.72-1.556-1.887-2.556-3.5-3-3.662-5.33-7.329-10.664-11-16Z" style="opacity:1"/><path fill="#fdfaee" d="M388.5 333.5v44c.473 1.406 1.473 2.073 3 2a977.79 977.79 0 0 0 14.5 2c.5 39.665.667 79.332.5 119-1.915.284-3.581-.049-5-1h4c.167-39.001 0-78.001-.5-117-3.146-1.049-6.312-.883-9.5.5.498 1.158 1.331 1.991 2.5 2.5 1.3-1.207 2.8-1.874 4.5-2 .897 36.997 1.063 73.997.5 111-5.383.035-10.883.202-16.5.5 1.206 1.018.873 1.518-1 1.5a4.933 4.933 0 0 1-2.5-1 552.224 552.224 0 0 0 0 47 256.709 256.709 0 0 1 2.5-33 8877.17 8877.17 0 0 1 2 36c-2.285-1.046-4.618-1.046-7 0v-52h20c.332-35.171-.002-70.171-1-105-.342-.838-1.008-1.172-2-1l-16-2v-44a873.708 873.708 0 0 1 1.5 42c3.667-.76 4.167-2.26 1.5-4.5.627-1.738.96-3.571 1-5.5-1.905-7.142-2.405-14.475-1.5-22l1.5-1.5c-1.204-1.353-1.871-3.019-2-5-.353-3.192.647-5.858 3-8-2.681-2.557-2.015-3.724 2-3.5Z" style="opacity:1"/><path fill="#fafbf5" d="M653.5 345.5c3.073 2.069 5.406 4.736 7 8 1.365 3.144 2.365 6.477 3 10 2.12 1.095 3.62 2.761 4.5 5a58.001 58.001 0 0 0 4 14 148.12 148.12 0 0 1-1.5 33h-3a4.934 4.934 0 0 1-.5 3c-1.822-4.287-1.822-8.621 0-13 .667-9 .667-18 0-27-1.844-6.061-4.344-11.728-7.5-17h-3c-1.029-5.86-4.362-9.694-10-11.5-1.443-2.953-3.777-4.453-7-4.5v-1c-6.988-4.864-5.988-6.697 3-5.5 3.484 2.732 7.15 4.899 11 6.5Z" style="opacity:1"/><path fill="#d57e31" d="M261.5 346.5v10c-4.2 10.947-7.2 22.281-9 34-2.575 2.345-3.575 5.345-3 9a316.33 316.33 0 0 1-5 20c-1.845 3.667-3.012 7.667-3.5 12-.383.556-.883.889-1.5 1 .364-10.582 2.864-20.582 7.5-30a167.297 167.297 0 0 0 2.5-25h3c.013-3.837 1.18-7.17 3.5-10l1-10 2-2c.66-3.178 1.493-6.178 2.5-9Z" style="opacity:1"/><path fill="#fbe5c4" d="M273.5 319.5a24.935 24.935 0 0 1-.5 7c-2.721 4.948-4.388 10.281-5 16l-2 2a304.77 304.77 0 0 0-2 13 184.927 184.927 0 0 0-8 26l-3.5 7c1.8-11.719 4.8-23.053 9-34 1.267-7.099 3.267-14.099 6-21v-3a79.691 79.691 0 0 1 6-13Z" style="opacity:1"/><path fill="#f7fefc" d="M401.5 499.5c-6.632-2.291-12.465-.958-17.5 4-.738 2.381-.238 4.381 1.5 6a256.709 256.709 0 0 0-2.5 33 552.224 552.224 0 0 1 0-47 4.933 4.933 0 0 0 2.5 1c1.873.018 2.206-.482 1-1.5a355.112 355.112 0 0 1 16.5-.5c.563-37.003.397-74.003-.5-111-1.7.126-3.2.793-4.5 2-1.169-.509-2.002-1.342-2.5-2.5 3.188-1.383 6.354-1.549 9.5-.5.5 38.999.667 77.999.5 117h-4Z" style="opacity:1"/><path fill="#feddb3" d="M388.5 377.5h2c5.81.99 11.81 1.323 18 1v123h-1c.167-40.335 0-80.668-.5-121a62.792 62.792 0 0 0-15.5-1c-1.527.073-2.527-.594-3-2Z" style="opacity:1"/><path fill="#d57c2f" d="M591.5 382.5a24.532 24.532 0 0 1-7-6.5 88.865 88.865 0 0 1-9-2.5c-11.069-1.329-22.235-1.329-33.5 0a182.442 182.442 0 0 0-1.5 26.5 337 337 0 0 0 1 25.5c11.154.995 22.488 1.328 34 1-11.507 1.324-23.173 1.324-35 0a4.457 4.457 0 0 0-1.5-2 313.86 313.86 0 0 0-1-50c.68-2.013 2.013-3.346 4-4a805.945 805.945 0 0 0 38.5 1.5 14.72 14.72 0 0 1 5 1.5 28.096 28.096 0 0 1 6 9Z" style="opacity:1"/><path fill="#e3b180" d="M575.5 373.5a268.978 268.978 0 0 0-32.5 1c-.5 16.663-.667 33.33-.5 50h17c-5.81.99-11.81 1.323-18 1a337 337 0 0 1-1-25.5c-.14-8.93.36-17.763 1.5-26.5 11.265-1.329 22.431-1.329 33.5 0Z" style="opacity:1"/><path fill="#d97a27" d="M655.5 366.5c1.613.444 2.78 1.444 3.5 3a98.966 98.966 0 0 0 5 15c.698 8.028.532 16.028-.5 24a21.435 21.435 0 0 1-1 7l-7.5 15a123.085 123.085 0 0 0-8.5 7v-4c-1.175.219-2.175-.114-3-1a9.86 9.86 0 0 1 6-1c-.541-3.795 1.125-5.795 5-6 6.269-11.175 8.769-23.175 7.5-36-.198 3.202-1.031 6.202-2.5 9a55.285 55.285 0 0 1-2-11c2.71-7.354 2.043-14.354-2-21Z" style="opacity:1"/><path fill="#b08557" d="M579.5 382.5c.342.838 1.008 1.172 2 1 7.635 8.3 8.968 17.634 4 28-1.354 2.196-3.354 3.696-6 4.5-9.661.5-19.328.666-29 .5v-34h29Z" style="opacity:1"/><path fill="#fdf3de" d="M674.5 373.5c.876-.131 1.543.202 2 1 6.583 23.116 2.917 44.283-11 63.5 1.385 1.597 2.051 3.43 2 5.5a29.753 29.753 0 0 1-7-2c1.041 4.05-.626 5.383-5 4 19.754-20.342 26.087-44.342 19-72Z" style="opacity:1"/><path fill="#e9b489" d="M252.5 390.5a29.495 29.495 0 0 1-1 6.5c-.184 1.376-.851 2.209-2 2.5-.575-3.655.425-6.655 3-9Z" style="opacity:1"/><path fill="#feeed0" d="m269.5 358.5-18 70h3c-1.251 2.061-2.918 2.394-5 1 1.333-1 1.333-2 0-3 1.638-4.48 2.471-9.147 2.5-14l4-8a179.658 179.658 0 0 1 4.5-21c3.629-6.736 5.795-14.069 6.5-22 .377-1.442 1.21-2.442 2.5-3Z" style="opacity:1"/><path fill="#fdf0d6" d="M575.5 373.5a88.865 88.865 0 0 0 9 2.5 24.532 24.532 0 0 0 7 6.5c0 .667.333 1 1 1a19.22 19.22 0 0 1 1 6c-.874-2.19-2.541-3.19-5-3-.344 3.12.323 5.953 2 8.5-1.372 3.481-1.039 6.815 1 10a62.575 62.575 0 0 1-6 6.5c4.968-10.366 3.635-19.7-4-28 1.788.285 3.455-.048 5-1a21.72 21.72 0 0 0-7-6.5 647.854 647.854 0 0 0-36-.5v6a31.986 31.986 0 0 0 13-2 310.612 310.612 0 0 0 20 1.5c1.237.232 2.237.732 3 1.5h-29v34c-.617-.111-1.117-.444-1.5-1a257.954 257.954 0 0 0-2-31 70.651 70.651 0 0 0-2.5 13c.18 1.054.513 2.054 1 3-1.34 1.188-2.007 2.688-2 4.5l2 6a27.592 27.592 0 0 0-2 12.5c9.339.166 18.673 0 28-.5a53.9 53.9 0 0 0 14-3.5c-1.497 2.313-3.663 3.647-6.5 4a122.449 122.449 0 0 1-19.5 1h-17c-.167-16.67 0-33.337.5-50a268.978 268.978 0 0 1 32.5-1Z" style="opacity:1"/><path fill="#fbfbf3" d="M581.5 383.5c-.992.172-1.658-.162-2-1-.763-.768-1.763-1.268-3-1.5a310.612 310.612 0 0 1-20-1.5 31.986 31.986 0 0 1-13 2v-6c12.005-.167 24.005 0 36 .5a21.72 21.72 0 0 1 7 6.5c-1.545.952-3.212 1.285-5 1Z" style="opacity:1"/><path fill="#fef3d4" d="M583.5 391.5a944.205 944.205 0 0 0-7-4 116.697 116.697 0 0 1-21 1 620.412 620.412 0 0 0 0 22.5 134.865 134.865 0 0 1 20 0l1.5 1.5c1.836-1.169 3.002-2.836 3.5-5 .825-.886 1.825-1.219 3-1a54.968 54.968 0 0 1 1-12c2.322 7.125.655 13.292-5 18.5-8.66.5-17.327.666-26 .5v-28c8.673-.166 17.34 0 26 .5 1.71 1.651 3.044 3.484 4 5.5Z" style="opacity:1"/><path fill="#efc29a" d="M459.5 334.5h1c-.167 14.004 0 28.004.5 42a55.155 55.155 0 0 0 14.5 1c.667 0 1 .333 1 1 .332 41.17-.001 82.17-1 123v-123h-14l-2-1v-43Z" style="opacity:1"/><path fill="#fdf4e0" d="M289.5 302.5c-.767-.672-1.434-1.505-2-2.5a26.67 26.67 0 0 1-6.5-1.5c-3.278 3.419-4.111 7.419-2.5 12 1.397-2.106 3.23-3.773 5.5-5 6.117 12.159 10.117 25.159 12 39 3.706 8.865 6.039 18.865 7 30 .827 1.162 1.66 2.329 2.5 3.5a158.698 158.698 0 0 0 6 21.5h3a121.978 121.978 0 0 1-4-23l2 3c-.241 2.398.426 4.398 2 6a32.462 32.462 0 0 0 .5 8c1.901 7.006 4.401 13.672 7.5 20 1.328 5.98 2.661 11.98 4 18v4c-27.335.167-54.669 0-82-.5l-2-1c.923-2.041 1.256-4.208 1-6.5l1-8a316.33 316.33 0 0 0 5-20c.142 10.69-1.525 21.024-5 31a6.846 6.846 0 0 1 1 4c26.355.288 52.688-.045 79-1a58.253 58.253 0 0 1-3.5-18 19.215 19.215 0 0 1-3.5-7c-.825-.886-1.825-1.219-3-1a40.914 40.914 0 0 0 .5 9c1.515 2.047 2.349 4.381 2.5 7-.056 2.14-.723 3.806-2 5a5046.464 5046.464 0 0 0-30.5-117 3.647 3.647 0 0 0-1.5-1 1909.28 1909.28 0 0 0-14 48c-1.29.558-2.123 1.558-2.5 3-.705 7.931-2.871 15.264-6.5 22 2.339-8.164 3.672-16.331 4-24.5a6.802 6.802 0 0 0 3-1.5c4.942-12.16 7.942-24.827 9-38h-3c.571-9.122 2.738-17.788 6.5-26 2.064-1.091 4.231-1.258 6.5-.5 2.295 2.757 3.295 5.923 3 9.5Z" style="opacity:1"/><path fill="#f4c79e" d="M592.5 383.5c2.442 1.621 3.775 3.954 4 7a37.297 37.297 0 0 1 .5 14c-.037 2.474-.87 4.474-2.5 6 1.656-7.231 1.323-14.231-1-21a19.22 19.22 0 0 0-1-6Z" style="opacity:1"/><path fill="#fdedd3" d="M170.5 374.5a75.247 75.247 0 0 0-4 16 400.493 400.493 0 0 0-3 5c-3.417 6.145-5.417 12.811-6 20-1.624-.14-2.79.527-3.5 2a86.572 86.572 0 0 0-6 20c-2.883 3.83-4.716 8.164-5.5 13-.641 1.493-1.641 2.493-3 3a413.188 413.188 0 0 0 8.5-28 6.547 6.547 0 0 0 3-3 106.682 106.682 0 0 1 9.5-25 98.305 98.305 0 0 0 1.5-9 11.38 11.38 0 0 0 2.5-2 139.403 139.403 0 0 1 4-11c.457-.798 1.124-1.131 2-1Z" style="opacity:1"/><path fill="#fdedd5" d="M660.5 353.5c10.996 13.96 15.496 29.96 13.5 48-.568 4.94-1.735 9.607-3.5 14a148.12 148.12 0 0 0 1.5-33 58.001 58.001 0 0 1-4-14c-.88-2.239-2.38-3.905-4.5-5-.635-3.523-1.635-6.856-3-10Z" style="opacity:1"/><path fill="#fcf0d9" d="M154.5 395.5c-.608 8.655-3.108 16.655-7.5 24-.671.752-1.504 1.086-2.5 1a421.68 421.68 0 0 1 10-25Z" style="opacity:1"/><path fill="#e7ae7a" d="M314.5 385.5a27.641 27.641 0 0 0 3 8 272.154 272.154 0 0 1 5 20c-3.099-6.328-5.599-12.994-7.5-20a32.462 32.462 0 0 1-.5-8Z" style="opacity:1"/><path fill="#f8fbf5" d="M170.5 374.5c-.876-.131-1.543.202-2 1a139.403 139.403 0 0 0-4 11 11.38 11.38 0 0 1-2.5 2 98.305 98.305 0 0 1-1.5 9 106.682 106.682 0 0 0-9.5 25 6.547 6.547 0 0 1-3 3 413.188 413.188 0 0 1-8.5 28v1c-1.673.843-2.84 2.176-3.5 4a31.827 31.827 0 0 1-2.5 9c-.825.886-1.825 1.219-3 1 .502-8.659 3.002-16.659 7.5-24a128.985 128.985 0 0 0 6.5-23v-1c.996.086 1.829-.248 2.5-1 4.392-7.345 6.892-15.345 7.5-24v-1c2.564-1.247 4.397-3.247 5.5-6a504.37 504.37 0 0 1 7.5-21c.929-1.436 2.095-2.769 3.5-4-.11 3.629-.276 7.296-.5 11Z" style="opacity:1"/><path fill="#fbfaed" d="M550.5 416.5c9.672.166 19.339 0 29-.5 2.646-.804 4.646-2.304 6-4.5a62.575 62.575 0 0 0 6-6.5c-2.039-3.185-2.372-6.519-1-10-1.677-2.547-2.344-5.38-2-8.5 2.459-.19 4.126.81 5 3 2.323 6.769 2.656 13.769 1 21-1.43 4.552-4.43 7.552-9 9a53.9 53.9 0 0 1-14 3.5c-9.327.5-18.661.666-28 .5a27.592 27.592 0 0 1 2-12.5l-2-6c-.007-1.812.66-3.312 2-4.5a10.305 10.305 0 0 1-1-3 70.651 70.651 0 0 1 2.5-13 257.954 257.954 0 0 1 2 31c.383.556.883.889 1.5 1Z" style="opacity:1"/><path fill="#fafcf8" d="M583.5 391.5c.904.709 1.237 1.709 1 3a54.968 54.968 0 0 0-1 12c-1.175-.219-2.175.114-3 1-.498 2.164-1.664 3.831-3.5 5l-1.5-1.5a134.865 134.865 0 0 0-20 0 620.412 620.412 0 0 1 0-22.5c7.058.297 14.058-.036 21-1a944.205 944.205 0 0 1 7 4Z" style="opacity:1"/><path fill="#fdf2da" d="M639.5 345.5c3.223.047 5.557 1.547 7 4.5 5.638 1.806 8.971 5.64 10 11.5h3c3.156 5.272 5.656 10.939 7.5 17 .667 9 .667 18 0 27-1.822 4.379-1.822 8.713 0 13a4.934 4.934 0 0 0 .5-3h3c-4.031 13.076-11.698 23.409-23 31a76.905 76.905 0 0 1 12.5-13c1.496-1.95 1.663-3.95.5-6-.505 2.269-1.838 3.603-4 4a77.217 77.217 0 0 0 6-16 21.435 21.435 0 0 0 1-7c.768-.763 1.268-1.763 1.5-3 .776-8.696.61-17.362-.5-26-2.709-4.288-4.542-8.955-5.5-14-2.34-3.012-4.673-6.012-7-9-2.086-2.594-4.586-4.594-7.5-6l-5-5Z" style="opacity:1"/><path fill="#fdf1d4" d="M268.5 377.5a645.706 645.706 0 0 1-1.5 16l-2 2a132.987 132.987 0 0 0-5.5 29c17.096-.11 34.096-.11 51 0v-3c.934 1.068 1.268 2.401 1 4h-56a633.499 633.499 0 0 1 13-48Z" style="opacity:1"/><path fill="#d08543" d="M596.5 390.5c.65.304 1.317.637 2 1 2.893 11.825.06 21.825-8.5 30a169.385 169.385 0 0 1-14.5 5c-11.512.328-22.846-.005-34-1 6.19.323 12.19-.01 18-1 6.528.186 13.028-.148 19.5-1 2.837-.353 5.003-1.687 6.5-4 4.57-1.448 7.57-4.448 9-9 1.63-1.526 2.463-3.526 2.5-6 .717-4.72.55-9.386-.5-14Z" style="opacity:1"/><path fill="#fdf1d7" d="M141.5 418.5a257.571 257.571 0 0 1-11 28c.284-2.377.284-4.544 0-6.5a116.232 116.232 0 0 0 7-21.5h4Z" style="opacity:1"/><path fill="#fbfcf4" d="M273.5 319.5h3c-1.058 13.173-4.058 25.84-9 38a6.802 6.802 0 0 1-3 1.5c-.328 8.169-1.661 16.336-4 24.5a179.658 179.658 0 0 0-4.5 21l-4 8c-.029 4.853-.862 9.52-2.5 14 1.333 1 1.333 2 0 3 2.082 1.394 3.749 1.061 5-1h1c1.452 1.6 3.285 2.6 5.5 3 16-1.333 32-1.333 48 0a60.061 60.061 0 0 0 6.5-3c1.277-1.194 1.944-2.86 2-5-.151-2.619-.985-4.953-2.5-7a40.914 40.914 0 0 1-.5-9c1.175-.219 2.175.114 3 1a19.215 19.215 0 0 0 3.5 7 58.253 58.253 0 0 0 3.5 18 1673.542 1673.542 0 0 1-79 1 6.846 6.846 0 0 0-1-4c3.475-9.976 5.142-20.31 5-31 1.149-.291 1.816-1.124 2-2.5.577-2.137.91-4.304 1-6.5l3.5-7a184.927 184.927 0 0 1 8-26 304.77 304.77 0 0 1 2-13l2-2c.612-5.719 2.279-11.052 5-16 .497-2.31.663-4.643.5-7Z" style="opacity:1"/><path fill="#fef6dd" d="M255.5 428.5h60a60.061 60.061 0 0 1-6.5 3c-16-1.333-32-1.333-48 0-2.215-.4-4.048-1.4-5.5-3Z" style="opacity:1"/><path fill="#dba06a" d="M465.5 389.5a2550.778 2550.778 0 0 1 1 101v2h-15l13-2v-2a2450.637 2450.637 0 0 0 1-99Z" style="opacity:1"/><path fill="#f6d3b1" d="M465.5 387.5c.617.111 1.117.444 1.5 1a1737.33 1737.33 0 0 1-.5 102c.332-33.837-.002-67.504-1-101v-2Z" style="opacity:1"/><path fill="#cd8749" d="M476.5 378.5c.667 0 1 .333 1 1 .167 41.001 0 82.001-.5 123-.671.752-1.504 1.086-2.5 1v-1c.667 0 1-.333 1-1 .999-40.83 1.332-81.83 1-123Z" style="opacity:1"/><path fill="#f8dab4" d="M662.5 415.5a77.217 77.217 0 0 1-6 16c-3.186 4.855-7.519 8.189-13 10l2-3c.667 0 1-.333 1-1a123.085 123.085 0 0 1 8.5-7l7.5-15Z" style="opacity:1"/><path fill="#fddfc0" d="M243.5 427.5c.256 2.292-.077 4.459-1 6.5l2 1c27.331.5 54.665.667 82 .5v-4c1.333 1.667 1.333 3.333 0 5h-85c.176-3.227.843-6.227 2-9Z" style="opacity:1"/><path fill="#e5af7e" d="m244.5 419.5-1 8c-1.157 2.773-1.824 5.773-2 9h85a1893.431 1893.431 0 0 1-87 1v-5c.617-.111 1.117-.444 1.5-1 .488-4.333 1.655-8.333 3.5-12Z" style="opacity:1"/><path fill="#d38036" d="M322.5 413.5c3.452 2.664 5.285 6.331 5.5 11a42.479 42.479 0 0 1 0 13l-1.5 1.5c-29.147-.11-58.147-.61-87-1.5 29.171.331 58.171-.002 87-1 1.333-1.667 1.333-3.333 0-5-1.339-6.02-2.672-12.02-4-18Z" style="opacity:1"/><path fill="#d58f50" d="M163.5 395.5c.582 3.815-.252 7.149-2.5 10a97.638 97.638 0 0 1-3 13c-1.011.837-2.178 1.17-3.5 1a504.625 504.625 0 0 0-7.5 27 115.712 115.712 0 0 0-5.5 9 51.147 51.147 0 0 1-7 16 94.37 94.37 0 0 0 5-17v-1c1.359-.507 2.359-1.507 3-3 .784-4.836 2.617-9.17 5.5-13a86.572 86.572 0 0 1 6-20c.71-1.473 1.876-2.14 3.5-2 .583-7.189 2.583-13.855 6-20Z" style="opacity:1"/><path fill="#ce7728" d="M409.5 378.5c.722.418 1.222 1.084 1.5 2a3719.39 3719.39 0 0 1 0 122 11.333 11.333 0 0 1-3.5 1.5l-15 1-1.5 1.5a246.01 246.01 0 0 0 .5 38c-1.982-13.292-2.649-26.959-2-41 5.676.166 11.343-.001 17-.5.556-.383.889-.883 1-1.5h1c.999-40.83 1.332-81.83 1-123Z" style="opacity:1"/><path fill="#fdebcd" d="M643.5 441.5c-.889 2.236-2.222 4.236-4 6 2.167 4.011 4.334 8.011 6.5 12a12.93 12.93 0 0 1 .5 5c-4.069-5.798-7.402-12.131-10-19a4.933 4.933 0 0 1 1-2.5l6-1.5Z" style="opacity:1"/><path fill="#d0833b" d="m645.5 438.5-2 3-6 1.5a4.933 4.933 0 0 0-1 2.5c2.598 6.869 5.931 13.202 10 19a997.385 997.385 0 0 1 15 31c-3.68-2.682-5.847-6.348-6.5-11a18.08 18.08 0 0 0-3.5-2c-.135-5.936-2.635-10.603-7.5-14-1.337-5.673-4.004-10.673-8-15-1.071-3.704-1.238-7.371-.5-11 1.73-.526 3.064-1.526 4-3a9.86 9.86 0 0 1 6-1Z" style="opacity:1"/><path fill="#d17a29" d="M395.5 389.5c1.993 33.65 2.66 67.65 2 102h-3a2627.038 2627.038 0 0 0 1-102Z" style="opacity:1"/><path fill="#d68d4b" d="m377.5 339.5 2 47c0 .667.333 1 1 1 5.81.99 11.81 1.323 18 1v104h-19c4.805-.987 9.805-1.321 15-1h3c.66-34.35-.007-68.35-2-102a128.507 128.507 0 0 1-16-.5l-1.5-1.5c-.5-15.997-.667-31.997-.5-48Z" style="opacity:1"/><path fill="#f0b986" d="M380.5 387.5h17c.992-.172 1.658.162 2 1a2704.72 2704.72 0 0 1-1 104v-104c-6.19.323-12.19-.01-18-1Z" style="opacity:1"/><path fill="#fee3c4" d="M399.5 388.5a2757.017 2757.017 0 0 1 1 105h-20v-1h18a2704.72 2704.72 0 0 0 1-104Z" style="opacity:1"/><path fill="#fbfbf1" d="m573.5 458.5 1 2a69.766 69.766 0 0 0 3 11.5l-1 2.5c-2.42-2.086-3.087-4.586-2-7.5-.498-1.158-1.331-1.991-2.5-2.5-7.308-1.297-14.475-1.297-21.5 0-.989 5.475-1.322 11.142-1 17h-6c-.315-7.92.018-15.753 1-23.5a163.306 163.306 0 0 1 29 .5Z" style="opacity:1"/><path fill="#d99f64" d="M390.5 377.5h18c.667 0 1 .333 1 1 .332 41.17-.001 82.17-1 123v-123c-6.19.323-12.19-.01-18-1Z" style="opacity:1"/><path fill="#fdf2db" d="M144.5 421.5a128.985 128.985 0 0 1-6.5 23c-4.498 7.341-6.998 15.341-7.5 24 1.175.219 2.175-.114 3-1a31.827 31.827 0 0 0 2.5-9c.66-1.824 1.827-3.157 3.5-4a94.37 94.37 0 0 1-5 17c-1.431 1.28-2.098 2.947-2 5a9.82 9.82 0 0 0-3 4v-9h-3a43.406 43.406 0 0 0-2.5 10 942.285 942.285 0 0 1-6.5 9l10-27 17-42Z" style="opacity:1"/><path fill="#fef0d6" d="M542.5 456.5c10.721-.642 21.054.025 31 2a163.306 163.306 0 0 0-29-.5 141.755 141.755 0 0 0-1 23.5h6c-.322-5.858.011-11.525 1-17v29c-1.869-2.135-2.536-4.802-2-8-5.306.074-6.306 2.241-3 6.5-1.494 2.639-2.161 5.472-2 8.5 3.213-.31 6.213.023 9 1h-10v-45Z" style="opacity:1"/><path fill="#b08557" d="M591.5 323.5c7.664.389 15.33.722 23 1 25.604 3.305 44.604 16.305 57 39a3910.62 3910.62 0 0 0 3 10c7.087 27.658.754 51.658-19 72-3.455.628-4.622 2.628-3.5 6l20 38a70.907 70.907 0 0 0 16.5 1v67h-9c-23.676.333-47.343 0-71-1a434.541 434.541 0 0 0-12-25 642.999 642.999 0 0 0-25-53c-1.624-10.091-7.624-13.758-18-11v23h15v64a992.742 992.742 0 0 1-1-63c-1.983-.343-3.317.324-4 2h-13v-29c6.009-.166 12.009.001 18 .5a8996.383 8996.383 0 0 1 39 81.5 5.727 5.727 0 0 0 1 3l2 4c25.163 1.329 50.163 1.329 75 0v-60c-4.754-.045-9.42.122-14 .5a840.854 840.854 0 0 0-14-24.5 356.302 356.302 0 0 0-11-21.5c.556-.383.889-.883 1-1.5 11.302-7.591 18.969-17.924 23-31 1.765-4.393 2.932-9.06 3.5-14 1.996-18.04-2.504-34.04-13.5-48-1.594-3.264-3.927-5.931-7-8-8.354-8.177-18.354-13.177-30-15a41.73 41.73 0 0 0-9-1 63.681 63.681 0 0 0-13-3c-3.619-.381-6.952-1.381-10-3Z" style="opacity:1"/><path fill="#f8fbf3" d="M647.5 446.5c-.111.617-.444 1.117-1 1.5a356.302 356.302 0 0 1 11 21.5c1.12 3.6 2.287 7.267 3.5 11 .667 1.667.667 3.333 0 5a32.747 32.747 0 0 0-6.5-10 18.725 18.725 0 0 1-2-8c-2.858.472-4.858-.528-6-3a12.93 12.93 0 0 0-.5-5 6467.724 6467.724 0 0 1-6.5-12c1.778-1.764 3.111-3.764 4-6 5.481-1.811 9.814-5.145 13-10 2.162-.397 3.495-1.731 4-4 1.163 2.05.996 4.05-.5 6a76.905 76.905 0 0 0-12.5 13Z" style="opacity:1"/><path fill="#e6b480" d="M577.5 464.5a173.913 173.913 0 0 1 9 15v2c-4.295-4.921-7.295-10.587-9-17Z" style="opacity:1"/><path fill="#edbf91" d="M132.5 476.5c-.914 4.436-2.581 8.436-5 12 .194-2.83.861-5.496 2-8a9.82 9.82 0 0 1 3-4Z" style="opacity:1"/><path fill="#fdf4dc" d="M130.5 446.5a87.406 87.406 0 0 1-5 14 548.474 548.474 0 0 1-14 35 29.571 29.571 0 0 1 2-9.5c.146-2.034-.52-3.701-2-5 .949-.617 1.782-.451 2.5.5 2.936-4.206 4.436-8.873 4.5-14-3 .333-4.333-1-4-4 2.657-.338 4.99.329 7 2 1.094-1.368.76-2.535-1-3.5a69.953 69.953 0 0 0 5-10c-.88-1.356-1.214-2.856-1-4.5 2.121.175 4.121-.159 6-1Z" style="opacity:1"/><path fill="#f8fdf8" d="M567.5 475.5a62.517 62.517 0 0 0 5 11c-1.545.952-3.212 1.285-5 1l-12 1c-.166-6.009.001-12.009.5-18a60.97 60.97 0 0 0 9.5-.5 18.155 18.155 0 0 1 2 5.5Z" style="opacity:1"/><path fill="#f2cda6" d="M542.5 456.5v45h10c1.89-.203 3.39.463 4.5 2 .827 14.173.661 28.173-.5 42a420.766 420.766 0 0 0-1-41c-.418-.722-1.084-1.222-2-1.5a72.367 72.367 0 0 0-12-.5 529.493 529.493 0 0 1 1-46Z" style="opacity:1"/><path fill="#fef1d3" d="M571.5 478.5c-.736-1.729-2.07-2.729-4-3a18.155 18.155 0 0 0-2-5.5 60.97 60.97 0 0 1-9.5.5 162.597 162.597 0 0 0-.5 18l12-1a5.727 5.727 0 0 0 1 3h-15v-23c10.376-2.758 16.376.909 18 11Z" style="opacity:1"/><path fill="#d77c2b" d="M141.5 455.5a24.935 24.935 0 0 1-.5 7 148.669 148.669 0 0 1-8 21c-.801 2.867-.634 5.534.5 8-.661 5.048-1.994 5.048-4 0a37.32 37.32 0 0 0-4.5 12 1396.143 1396.143 0 0 1-7.5 14c1.3-3.596 2.3-7.263 3-11 .617-.111 1.117-.444 1.5-1a107.482 107.482 0 0 1 5.5-17c2.419-3.564 4.086-7.564 5-12-.098-2.053.569-3.72 2-5a51.147 51.147 0 0 0 7-16Z" style="opacity:1"/><path fill="#cc7e30" d="M378.5 493.5v51c-4.515 1.312-9.182 1.312-14 0a466.712 466.712 0 0 0-9-23v-2a79.262 79.262 0 0 0-4-12l-2-7c.396-2.544-.271-4.711-2-6.5l-64-.5c-21.677 0-43.011.667-64 2-.907 2.157-1.573 4.49-2 7v1l-4 8a110.72 110.72 0 0 1 4-19l19-1c36.348.206 72.682.373 109 .5 1.372.402 2.705.902 4 1.5.909 4.37 1.909 8.703 3 13h3a40.914 40.914 0 0 0 .5 9 440.68 440.68 0 0 1 9 27c3.683 2.074 7.516 2.407 11.5 1 .667-16.828 1.333-33.495 2-50Z" style="opacity:1"/><path fill="#d77c2d" d="M586.5 481.5c3.256 2.992 5.922 6.492 8 10.5.667.667 1.333.667 2 0-1.104-1.131-.771-1.965 1-2.5 2.279 2.961 2.279 5.794 0 8.5 3.187 5.06 4.854 10.56 5 16.5a34.406 34.406 0 0 1-5-8 193.24 193.24 0 0 1-11-25Z" style="opacity:1"/><path fill="#dea068" d="M349.5 500.5a11.445 11.445 0 0 0-3-5 2021.674 2021.674 0 0 0-127 0c20.989-1.333 42.323-2 64-2l64 .5c1.729 1.789 2.396 3.956 2 6.5Z" style="opacity:1"/><path fill="#fed6ae" d="M346.5 495.5c-41.668-.167-83.335 0-125 .5a72.98 72.98 0 0 1-4 6.5c.427-2.51 1.093-4.843 2-7 42.431-1.33 84.764-1.33 127 0Z" style="opacity:1"/><path fill="#fdf2db" d="M646.5 464.5c1.142 2.472 3.142 3.472 6 3a18.725 18.725 0 0 0 2 8 32.747 32.747 0 0 1 6.5 10c.667-1.667.667-3.333 0-5-1.213-3.733-2.38-7.4-3.5-11a840.854 840.854 0 0 1 14 24.5c4.58-.378 9.246-.545 14-.5v58c-1.987-18.303-2.654-36.97-2-56h-5c1.249 16.82 1.249 33.487 0 50a462.903 462.903 0 0 0-1-43 50.464 50.464 0 0 1-10-.5 28.85 28.85 0 0 1-6-6.5 997.385 997.385 0 0 0-15-31Z" style="opacity:1"/><path fill="#fcfaec" d="M346.5 495.5a11.445 11.445 0 0 1 3 5l2 7a34.033 34.033 0 0 0 1.5 8c.2 1.82 1.034 3.153 2.5 4v2c.022 5.528 1.522 10.528 4.5 15-.048 4.021.952 7.687 3 11a45.397 45.397 0 0 0 14.5 3c.17-1.322-.163-2.489-1-3.5a4.934 4.934 0 0 1 3-.5c.596 1.435.596 3.102 0 5-3.606.289-7.106-.044-10.5-1a4.457 4.457 0 0 0-1.5 2c5.485.667 10.819 1.333 16 2-8.007.166-16.007 0-24-.5-1.191-.698-2.191-1.531-3-2.5a1021.314 1021.314 0 0 0-15-47.5 18.453 18.453 0 0 0-6-.5c-34.345-.69-68.845-1.357-103.5-2-2.008-.193-3.508.474-4.5 2-1.25.077-2.083.744-2.5 2a1363.258 1363.258 0 0 1-9.5 28c-1.951 1.98-3.451 4.313-4.5 7a98.39 98.39 0 0 1-3.5 13 3279.26 3279.26 0 0 1-114-1c.48-2.943 1.48-5.61 3-8 1.294-.79 2.46-1.79 3.5-3a72.954 72.954 0 0 1 4.5-13c.825-.886 1.825-1.219 3-1a32.462 32.462 0 0 1-.5 8c-3.089 3.704-3.256 7.537-.5 11.5a508.845 508.845 0 0 1 45 2.5c17.331-.196 34.665-.529 52-1 2.941-4.519 4.441-9.519 4.5-15 .689-3.792 2.856-5.792 6.5-6 .231-7.966 1.231-15.966 3-24v-1a72.98 72.98 0 0 0 4-6.5c41.665-.5 83.332-.667 125-.5Z" style="opacity:1"/><path fill="#fdf3d9" d="M655.5 445.5c-1.393 1.784-1.893 3.784-1.5 6a664.264 664.264 0 0 0 14 27c1.167 2.5 3 4.333 5.5 5.5-.88 1.356-1.214 2.856-1 4.5a75.354 75.354 0 0 0 16-1c3.345.677 3.678 2.01 1 4a28.043 28.043 0 0 1 1.5 5c.788 29.014.454 58.014-1 87l-1.5 1.5c-14.996.5-29.996.667-45 .5 14.629-1.984 29.629-2.65 45-2 .325-7.519-.008-14.852-1-22v-3c-2.885.306-5.552-.027-8-1h9v-67a70.907 70.907 0 0 1-16.5-1l-20-38c-1.122-3.372.045-5.372 3.5-6Z" style="opacity:1"/><path fill="#f7fdfe" d="M239.5 497.5c32.335-.167 64.668 0 97 .5.457.414.791.914 1 1.5a1601.063 1601.063 0 0 1-98 .5c-1.098-.77-1.098-1.603 0-2.5Z" style="opacity:1"/><path fill="#fdead0" d="M127.5 488.5a107.482 107.482 0 0 0-5.5 17c-.383.556-.883.889-1.5 1a27.195 27.195 0 0 0-3 5c-.163-2.357.003-4.69.5-7 2.569-3.595 4.236-7.595 5-12 .792-2.144 2.292-3.477 4.5-4Z" style="opacity:1"/><path fill="#ffe4be" d="M335.5 503.5h-108c.992-1.526 2.492-2.193 4.5-2 34.655.643 69.155 1.31 103.5 2Z" style="opacity:1"/><path fill="#fafaf5" d="M129.5 480.5c-1.139 2.504-1.806 5.17-2 8-2.208.523-3.708 1.856-4.5 4-.764 4.405-2.431 8.405-5 12a24.935 24.935 0 0 0-.5 7 31.686 31.686 0 0 1-2 6c-2.215 2.592-3.881 5.592-5 9a32.598 32.598 0 0 1 0-15h3a32.462 32.462 0 0 1 .5-8c3.48-4.184 4.647-8.518 3.5-13a942.285 942.285 0 0 0 6.5-9 43.406 43.406 0 0 1 2.5-10h3v9Z" style="opacity:1"/><path fill="#cf833f" d="M586.5 479.5a173.913 173.913 0 0 0-9-15c-.489-1.495-1.155-2.829-2-4 .214-1.644-.12-3.144-1-4.5-10.841-.825-21.508-.659-32 .5a529.493 529.493 0 0 0-1 46 72.367 72.367 0 0 1 12 .5c.916.278 1.582.778 2 1.5v40h-3v-1c1.33-5.963 1.996-12.296 2-19l-.5-19c-4.08-.8-8.247-1.3-12.5-1.5a9.454 9.454 0 0 1-1.5-2.5c-.667-15-.667-30 0-45a4.457 4.457 0 0 0 1.5-2 122.832 122.832 0 0 1 34 .5c.852 2.362 2.352 4.195 4.5 5.5.359 5.383 2.359 10.049 6 14a12.93 12.93 0 0 1 .5 5Z" style="opacity:1"/><path fill="#f8cfa8" d="M542.5 456.5c10.492-1.159 21.159-1.325 32-.5.88 1.356 1.214 2.856 1 4.5h-1l-1-2c-9.946-1.975-20.279-2.642-31-2Z" style="opacity:1"/><path fill="#fcf4e0" d="M574.5 460.5h1c.845 1.171 1.511 2.505 2 4 1.705 6.413 4.705 12.079 9 17a193.24 193.24 0 0 0 11 25c1.993 7.653 5.327 14.653 10 21a115.566 115.566 0 0 0 6 13c-.108 2.014.558 3.68 2 5a5.576 5.576 0 0 1-3-1 60.377 60.377 0 0 1-3.5-10c-3.901-2.487-5.901-6.154-6-11l-3-4a16.242 16.242 0 0 0 0 8 100.498 100.498 0 0 1 8.5 16 5.576 5.576 0 0 0-1 3 8996.383 8996.383 0 0 0-39-81.5 162.597 162.597 0 0 0-18-.5c7.025-1.297 14.192-1.297 21.5 0 1.169.509 2.002 1.342 2.5 2.5-1.087 2.914-.42 5.414 2 7.5l1-2.5a69.766 69.766 0 0 1-3-11.5Z" style="opacity:1"/><path fill="#ecc397" d="M597.5 506.5a34.406 34.406 0 0 0 5 8 66.159 66.159 0 0 1 5 13c-4.673-6.347-8.007-13.347-10-21Z" style="opacity:1"/><path fill="#e4b587" d="M407.5 501.5c-.111.617-.444 1.117-1 1.5-5.657.499-11.324.666-17 .5-.649 14.041.018 27.708 2 41h1a841.82 841.82 0 0 0 58 1 900.97 900.97 0 0 1-60 1c-.992.172-1.658-.162-2-1v-44h19Z" style="opacity:1"/><path fill="#ecb37d" d="M379.5 492.5h1v1l-2 51v-51c0-.667.333-1 1-1Z" style="opacity:1"/><path fill="#fef4dd" d="M391.5 379.5a62.792 62.792 0 0 1 15.5 1c.5 40.332.667 80.665.5 121h-19v44h-1a8877.17 8877.17 0 0 0-2-36c-1.738-1.619-2.238-3.619-1.5-6 5.035-4.958 10.868-6.291 17.5-4 1.419.951 3.085 1.284 5 1 .167-39.668 0-79.335-.5-119a977.79 977.79 0 0 1-14.5-2Z" style="opacity:1"/><path fill="#fad7b0" d="M451.5 492.5h14c-4.47.986-9.137 1.319-14 1a676.419 676.419 0 0 1-1 52v-52c0-.667.333-1 1-1Z" style="opacity:1"/><path fill="#cd7629" d="m464.5 490.5-13 2c-.667 0-1 .333-1 1a650.602 650.602 0 0 0-1 51h-50a600.937 600.937 0 0 1 49-1 633.075 633.075 0 0 0-1-49.5 9.568 9.568 0 0 1 3-3 98.432 98.432 0 0 1 14-.5Z" style="opacity:1"/><path fill="#d47424" d="M477.5 379.5a2566.482 2566.482 0 0 1 .5 124 80.465 80.465 0 0 1-15 3 684.346 684.346 0 0 0-.5 37h90v1h-91v-41h13c.996.086 1.829-.248 2.5-1 .5-40.999.667-81.999.5-123Z" style="opacity:1"/><path fill="#f7cda3" d="M351.5 507.5a79.262 79.262 0 0 1 4 12c-1.466-.847-2.3-2.18-2.5-4a34.033 34.033 0 0 1-1.5-8Z" style="opacity:1"/><path fill="#f0c59f" d="M475.5 501.5c0 .667-.333 1-1 1h-14v43a484.723 484.723 0 0 1-1-44h16Z" style="opacity:1"/><path fill="#fcfefc" d="M596.5 531.5c-.113 2.549.554 4.882 2 7-3.285.198-4.952 1.865-5 5 1.488 6.109.821 11.942-2 17.5a42.36 42.36 0 0 0-8.5 1.5c-2.118-2.702-4.618-3.369-7.5-2a98.432 98.432 0 0 0-.5-14 84.902 84.902 0 0 0-.5 13h-4c-.167-21.336 0-42.669.5-64 4.223-4.146 6.223-3.146 6 3a3.647 3.647 0 0 0-1.5-1c-1.157 3.284-1.324 6.618-.5 10 2.892-1.342 4.225-3.675 4-7l3 3a44.34 44.34 0 0 0 5 12l2.5 12c1.435 1.324 2.435 2.99 3 5a6.846 6.846 0 0 1 4-1Z" style="opacity:1"/><path fill="#faf3d3" d="M109.5 500.5c-6.993 18.656-13.993 37.323-21 56-.624-.417-.957-1.084-1-2a111.84 111.84 0 0 1 9.5-24c-.748-6.327 1.252-11.66 6-16a133.74 133.74 0 0 0 3-11c.759-1.563 1.926-2.563 3.5-3Z" style="opacity:1"/><path fill="#fcf0d6" d="M117.5 490.5c1.147 4.482-.02 8.816-3.5 13a32.462 32.462 0 0 0-.5 8h-3a32.598 32.598 0 0 0 0 15c1.119-3.408 2.785-6.408 5-9v3a4359.023 4359.023 0 0 1-5 12c-1.755 2.261-2.922 4.928-3.5 8-.78 1.887-.613 3.554.5 5 15.663.667 31.496 1 47.5 1 16.181-.001 32.014-.667 47.5-2v-1c1.59-1.975 2.757-4.308 3.5-7a487.407 487.407 0 0 1 7.5-25l4-8c-1.769 8.034-2.769 16.034-3 24-3.644.208-5.811 2.208-6.5 6-.059 5.481-1.559 10.481-4.5 15-17.335.471-34.669.804-52 1a508.845 508.845 0 0 0-45-2.5c-2.756-3.963-2.589-7.796.5-11.5.497-2.646.664-5.313.5-8-1.175-.219-2.175.114-3 1a72.954 72.954 0 0 0-4.5 13 14.696 14.696 0 0 1-3.5 3 1297.05 1297.05 0 0 1 21-54Z" style="opacity:1"/><path fill="#e2ac77" d="M120.5 506.5c-.7 3.737-1.7 7.404-3 11 .073 1.527-.594 2.527-2 3v-3a31.686 31.686 0 0 0 2-6 27.195 27.195 0 0 1 3-5Z" style="opacity:1"/><path fill="#d38641" d="M661.5 495.5a28.85 28.85 0 0 0 6 6.5c3.317.498 6.65.665 10 .5v42h-6c1.419-.951 3.085-1.284 5-1 .167-12.671 0-25.338-.5-38-4.041-.458-7.874-1.458-11.5-3-2.334-1.676-3.334-4.009-3-7Z" style="opacity:1"/><path fill="#d77d2f" d="M213.5 511.5a487.407 487.407 0 0 0-7.5 25c-.743 2.692-1.91 5.025-3.5 7a96.873 96.873 0 0 0-1-16h6a18.453 18.453 0 0 1 .5-6c2.503-3.05 4.336-6.383 5.5-10Z" style="opacity:1"/><path fill="#e1781d" d="M133.5 491.5c1.713 1.135 2.38 2.802 2 5-2.292.256-4.459-.077-6.5-1a128.507 128.507 0 0 0-.5 16c-4.622-1.695-6.289-.195-5 4.5 3.272.437 4.939 2.27 5 5.5-3.279.531-4.613 2.531-4 6h-3a16.873 16.873 0 0 0-1-8c-1.299.59-2.132 1.59-2.5 3a38.581 38.581 0 0 0 1.5 13 56.863 56.863 0 0 0 7.5-5c1.557 2.794 1.89 5.794 1 9-1.171 1.393-2.671 2.227-4.5 2.5 23.674.833 47.34.666 71-.5.333-1 1-1.667 2-2 .659 3.324 2.659 4.657 6 4v1c-30.668.167-61.335 0-92-.5-.906-1.699-1.239-3.533-1-5.5a19.22 19.22 0 0 1 1-6c1.656-3.958 3.323-7.958 5-12 1.406-.473 2.073-1.473 2-3 2.498-4.599 4.998-9.266 7.5-14a37.32 37.32 0 0 1 4.5-12c2.006 5.048 3.339 5.048 4 0Z" style="opacity:1"/><path fill="#e1771d" d="M664.5 502.5c3.626 1.542 7.459 2.542 11.5 3 .5 12.662.667 25.329.5 38-1.915-.284-3.581.049-5 1a756.853 756.853 0 0 1-55-1v-5c.923.803 1.923.97 3 .5a154.722 154.722 0 0 1-3-11.5h4c-.38 3.292.953 5.625 4 7a265.066 265.066 0 0 0 46 0 15.418 15.418 0 0 0 1-7h3v-22c-1.56.019-3.06.352-4.5 1l-4.5-1.5c-.752-.671-1.086-1.504-1-2.5Z" style="opacity:1"/><path fill="#e5af83" d="M110.5 532.5a19.22 19.22 0 0 0-1 6c-1.424 2.015-2.09 4.348-2 7-1.113-1.446-1.28-3.113-.5-5 .578-3.072 1.745-5.739 3.5-8Z" style="opacity:1"/><path fill="#d1823d" d="M602.5 514.5c4.06 3.747 6.393 8.414 7 14a692.773 692.773 0 0 1 7 10v5a10.165 10.165 0 0 0-3-3 115.566 115.566 0 0 1-6-13 66.159 66.159 0 0 0-5-13Z" style="opacity:1"/><path fill="#ce8c4c" d="M109.5 538.5c-.239 1.967.094 3.801 1 5.5 30.665.5 61.332.667 92 .5-15.486 1.333-31.319 1.999-47.5 2-16.004 0-31.837-.333-47.5-1-.09-2.652.576-4.985 2-7Z" style="opacity:1"/><path fill="#dd9b5f" d="M450.5 493.5v52a841.82 841.82 0 0 1-58-1h57a650.602 650.602 0 0 1 1-51Z" style="opacity:1"/><path fill="#dd9a60" d="M474.5 502.5v1h-13v41h94v-40a420.766 420.766 0 0 1 1 41h-96v-43h14Z" style="opacity:1"/><path fill="#e7ad79" d="M677.5 502.5a462.903 462.903 0 0 1 1 43 499.363 499.363 0 0 1-63 0c-1.442-1.32-2.108-2.986-2-5a10.165 10.165 0 0 1 3 3 756.853 756.853 0 0 0 55 1h6v-42Z" style="opacity:1"/><path fill="#fce7ca" d="M380.5 493.5v52c-.667 0-1 .333-1 1a4.934 4.934 0 0 0-3 .5c.837 1.011 1.17 2.178 1 3.5a45.397 45.397 0 0 1-14.5-3c-2.048-3.313-3.048-6.979-3-11-2.978-4.472-4.478-9.472-4.5-15a466.712 466.712 0 0 1 9 23c4.818 1.312 9.485 1.312 14 0l2-51Z" style="opacity:1"/><path fill="#fcfbf1" d="M685.5 551.5v2h-74v-4h-3a5.727 5.727 0 0 1-1-3 5.576 5.576 0 0 1 1-3 100.498 100.498 0 0 0-8.5-16 16.242 16.242 0 0 1 0-8l3 4c.099 4.846 2.099 8.513 6 11a60.377 60.377 0 0 0 3.5 10 5.576 5.576 0 0 0 3 1 499.363 499.363 0 0 0 63 0c1.249-16.513 1.249-33.18 0-50h5c-.654 19.03.013 37.697 2 56Z" style="opacity:1"/><path fill="#fcfcf7" d="M550.5 493.5c2.107.968 4.441 1.302 7 1-.219 1.175.114 2.175 1 3a9.108 9.108 0 0 1 5-1 536.183 536.183 0 0 1-1.5 56l-1-1a7227.76 7227.76 0 0 1-169.5 3h-8a2298.005 2298.005 0 0 0-16-2 4.457 4.457 0 0 1 1.5-2c3.394.956 6.894 1.289 10.5 1 .596-1.898.596-3.565 0-5 0-.667.333-1 1-1 2.382-1.046 4.715-1.046 7 0h1c.342.838 1.008 1.172 2 1 2.805.819 5.805 1.319 9 1.5l47 1c6 3.333 12 3.333 18 0a1680.41 1680.41 0 0 1 82 0c4.51 2.664 7.51 1.497 9-3.5h1c1.161-13.827 1.327-27.827.5-42-1.11-1.537-2.61-2.203-4.5-2-2.787-.977-5.787-1.31-9-1-.161-3.028.506-5.861 2-8.5-3.306-4.259-2.306-6.426 3-6.5-.536 3.198.131 5.865 2 8Z" style="opacity:1"/><path fill="#fdf4e3" d="M461.5 378.5h14v123h-16a484.723 484.723 0 0 0 1 44h95c-1.49 4.997-4.49 6.164-9 3.5a1680.41 1680.41 0 0 0-82 0c-6 3.333-12 3.333-18 0l-47-1c-3.195-.181-6.195-.681-9-1.5a900.97 900.97 0 0 0 60-1 676.419 676.419 0 0 0 1-52c4.863.319 9.53-.014 14-1h1c.086.996-.248 1.829-1 2.5a32.462 32.462 0 0 1-8 .5c-.17 1.322.163 2.489 1 3.5 5.344.471 10.678.971 16 1.5v-121c-4.532.318-8.866-.015-13-1Z" style="opacity:1"/><path fill="#feedc9" d="M215.5 533.5a129.359 129.359 0 0 1-7 21c-38.672.333-77.339 0-116-1 .124-.607.457-.94 1-1a3279.26 3279.26 0 0 0 114 1 98.39 98.39 0 0 0 3.5-13c1.049-2.687 2.549-5.02 4.5-7Z" style="opacity:1"/><path fill="#fef8e3" d="M550.5 493.5h12c-.107 1.879.393 2.212 1.5 1 .5 19.997.667 39.997.5 60h-173a7227.76 7227.76 0 0 0 169.5-3l1 1a536.183 536.183 0 0 0 1.5-56 9.108 9.108 0 0 0-5 1c-.886-.825-1.219-1.825-1-3-2.559.302-4.893-.032-7-1Z" style="opacity:1"/><path fill="#feebca" d="M608.5 549.5h3v4h74c-24.837 1.329-49.837 1.329-75 0l-2-4Z" style="opacity:1"/><path fill="#edcdab" d="M562.5 493.5h1c1.988 20.306 2.655 40.973 2 62h-175c-11.005.167-22.005 0-33-.5-.837-1.011-1.17-2.178-1-3.5.809.969 1.809 1.802 3 2.5 7.993.5 15.993.666 24 .5h181c.167-20.003 0-40.003-.5-60-1.107 1.212-1.607.879-1.5-1Z" style="opacity:1"/><path fill="#b28752" d="M125.5 460.5c1.548.321 2.215 1.321 2 3l-10 27a1297.05 1297.05 0 0 0-21 54c-1.52 2.39-2.52 5.057-3 8-.543.06-.876.393-1 1 38.661 1 77.328 1.333 116 1v3h-117a5.727 5.727 0 0 1-3-1c7.007-18.677 14.007-37.344 21-56 1.431-1.28 2.098-2.947 2-5a548.474 548.474 0 0 0 14-35Z" style="opacity:1"/><path fill="#b08559" d="M227.5 503.5h12c15.652 1.333 31.652 1.999 48 2 16.348-.001 32.348-.667 48-2a18.453 18.453 0 0 1 6 .5 1021.314 1021.314 0 0 1 15 47.5c-.17 1.322.163 2.489 1 3.5 10.995.5 21.995.667 33 .5-3.812.824-7.812 1.324-12 1.5 60.501.167 120.835.667 181 1.5h-204c-1.68-4.757-3.347-9.423-5-14l-10-38c-37.673-.333-75.339 0-113 1a583.664 583.664 0 0 0-8 26 168.887 168.887 0 0 0-8 24h-3v-3a129.359 129.359 0 0 0 7-21c3.23-9.188 6.397-18.521 9.5-28 .417-1.256 1.25-1.923 2.5-2Z" style="opacity:1"/><path fill="#fef0d5" d="M350.5 544.5c-3.795-5.629-5.961-11.963-6.5-19-.93-2.052-2.43-3.552-4.5-4.5l1-1a51.727 51.727 0 0 1-1.5-9.5c-.717-.544-1.217-1.211-1.5-2a1603.715 1603.715 0 0 0-98-.5c-3.811-.083-7.145.75-10 2.5-1.943.578-2.277 1.578-1 3-3.363 5.811-5.196 12.144-5.5 19-.383.556-.883.889-1.5 1h-2a583.664 583.664 0 0 1 8-26c37.661-1 75.327-1.333 113-1l10 38Z" style="opacity:1"/><path fill="#fbfcf0" d="M337.5 508.5a2521.408 2521.408 0 0 1-108 2c2.855-1.75 6.189-2.583 10-2.5 32.836-.831 65.503-.664 98 .5Z" style="opacity:1"/><path fill="#be8055" d="M239.5 503.5h96c-15.652 1.333-31.652 1.999-48 2-16.348-.001-32.348-.667-48-2Z" style="opacity:1"/><path fill="#b58451" d="M568.5 554.5c.284 1.915-.049 3.581-1 5a24.93 24.93 0 0 0-8-1 16330.404 16330.404 0 0 0-181-1.5c4.188-.176 8.188-.676 12-1.5h175c.655-21.027-.012-41.694-2-62 .683-1.676 2.017-2.343 4-2a992.742 992.742 0 0 0 1 63Z" style="opacity:1"/><path fill="#f2ead4" d="M91.5 557.5h120c-.366 1.195-1.199 1.861-2.5 2a633.075 633.075 0 0 0-49.5-1 57.15 57.15 0 0 0-15 1 4.457 4.457 0 0 0 2 1.5c4.321.499 8.654.666 13 .5.273 1.951-.393 3.451-2 4.5a30.563 30.563 0 0 0 12 6c-.712 1.425-.879 2.925-.5 4.5-1.156-1.493-1.99-1.326-2.5.5 1.503 1.921 2.169 4.088 2 6.5h-6a44.093 44.093 0 0 1 3-2c-.866-3.453-2.866-5.786-6-7-1.308-2.986-3.642-4.652-7-5-3.034-1.518-6.367-2.351-10-2.5a156.422 156.422 0 0 0-25 0c-4.743 1.182-9.076 3.015-13 5.5l-4 4c-1.4.6-2.4 1.6-3 3-.113-2.549.554-4.882 2-7-.774-1.211-1.607-1.211-2.5 0l-1.5-3c1.52-.38 3.187-.546 5-.5a36.16 36.16 0 0 1 7-4c-1.309-1.751-.975-3.251 1-4.5-2.616-1.061-5.116-.728-7.5 1a47.444 47.444 0 0 1-9.5-4Z" style="opacity:1"/><path fill="#fdf8e9" d="M219.5 533.5h2l-1 10h3c.219 1.175-.114 2.175-1 3-1.35-1.45-3.016-2.117-5-2-1.639 3.76-.972 7.094 2 10-3.362.852-6.029 2.686-8 5.5 13.512.728 27.012.562 40.5-.5 2.295.047 4.129.713 5.5 2-24.839-.331-49.506.002-74 1a1260.363 1260.363 0 0 0-1 71c-1.883-1.45-2.883-3.45-3-6a280.261 280.261 0 0 0 1.5-51c-2.281-1.909-3.447-4.409-3.5-7.5a52.985 52.985 0 0 0 3-9.5c-2.772-.28-5.272.387-7.5 2-4.08-.8-8.247-1.3-12.5-1.5-.556-.383-.889-.883-1-1.5a633.075 633.075 0 0 1 49.5 1c1.301-.139 2.134-.805 2.5-2a168.887 168.887 0 0 1 8-24Z" style="opacity:1"/><path fill="#fdeccf" d="M355.5 558.5h204a24.93 24.93 0 0 1 8 1c-.709.904-1.709 1.237-3 1h-15a15.418 15.418 0 0 0-7 1 18.353 18.353 0 0 0-9-2c-12.005-.167-24.005 0-36 .5.556.383.889.883 1 1.5h-34c-.043 24.167-.043 48.5 0 73a1084.825 1084.825 0 0 0-3-66c.486-2.307.486-4.473 0-6.5a577.896 577.896 0 0 0-34-.5c-10.281-1.976-20.948-2.643-32-2a400.456 400.456 0 0 1-40-1Z" style="opacity:1"/><path fill="#95876d" d="M549.5 560.5h15l5 2a229.665 229.665 0 0 1-20-2Z" style="opacity:1"/><path fill="#948b7a" d="M272.5 561.5c21.003-.167 42.003 0 63 .5 2.865.183 5.531.683 8 1.5a1437.922 1437.922 0 0 0-70-1v74h33v-27c4.054-.29 4.554.377 1.5 2-.5 8.66-.666 17.327-.5 26h-35v-76Z" style="opacity:1"/><path fill="#928c79" d="M358.5 566.5c-.901-.79-1.568-1.79-2-3v-1c44.514-.71 45.181-.71 2 0v4Z" style="opacity:1"/><path fill="#978c7a" d="M427.5 561.5c11.338-.167 22.672 0 34 .5.486 2.027.486 4.193 0 6.5-1.278.282-2.278.949-3 2l2-8c-11.255-.609-22.255.058-33 2v-3Z" style="opacity:1"/><path fill="#f0e8d4" d="M533.5 559.5c3.167-.1 6.167.567 9 2a15.418 15.418 0 0 1 7-1 229.665 229.665 0 0 0 20 2c2.7 1.016 5.366 1.016 8 0a120.342 120.342 0 0 1 10.5 8c1.507-1.035 3.007-.868 4.5.5l-2 1a10.756 10.756 0 0 1 3 2.5c.411-.762.577-1.762.5-3 2.319 4.051 5.486 7.051 9.5 9-.346 1.196-.846 1.196-1.5 0-.687 2.068-.52 4.068.5 6a14.972 14.972 0 0 0-3 3.5 75.565 75.565 0 0 1-16 2 11.38 11.38 0 0 1-2 2.5 5.576 5.576 0 0 0-3-1c-2.107-.968-4.441-1.302-7-1-.874-2.19-2.541-3.19-5-3-.42-2.174-.42-4.174 0-6a28.717 28.717 0 0 0-13-.5c-2.602.883-4.769 2.383-6.5 4.5l-1-1a15.256 15.256 0 0 1-4.5 1.5 19.602 19.602 0 0 1-2 3.5 57.15 57.15 0 0 0 1 15 812.705 812.705 0 0 1 2-11 40.914 40.914 0 0 0 .5 9c1.242 2.041 3.075 3.207 5.5 3.5a7.293 7.293 0 0 1-3 2l3 3c4.321.499 8.654.666 13 .5a12.93 12.93 0 0 1 5 .5 6.978 6.978 0 0 0-2.5 3.5 3.943 3.943 0 0 0-2-1 123.194 123.194 0 0 1-13.5 1.5c.457.414.791.914 1 1.5 5 1.333 10 1.333 15 0 1.222-2.478 3.222-3.478 6-3a41.73 41.73 0 0 1 1-9c.768-.763 1.268-1.763 1.5-3 5.256 4.203 11.089 5.203 17.5 3 .321 1.548 1.321 2.215 3 2a46.664 46.664 0 0 1 2.5 9 9.454 9.454 0 0 0 2.5 1.5 134.216 134.216 0 0 1-9 10.5 3.647 3.647 0 0 0 1 1.5c-1.244.456-2.077-.044-2.5-1.5a87.19 87.19 0 0 0-6.5 6l-2-1c-9.748 4.407-19.748 5.741-30 4-6.31-1.635-11.977-3.301-17-5-6.788-2.152-12.288-6.152-16.5-12l-1 1c-1.048-3.817-3.215-7.317-6.5-10.5a3.647 3.647 0 0 0 1-1.5 28.043 28.043 0 0 1-1.5-5c-.075 2.435-.908 3.102-2.5 2a151.904 151.904 0 0 1 6.5-27c2.122-.72 2.622-1.887 1.5-3.5.753-1.487 1.586-1.654 2.5-.5.317-1.801.984-2.134 2-1l3.5-3.5c-1.141-.741-1.141-1.575 0-2.5a4.457 4.457 0 0 0-2-1.5c2.291-1.877 4.291-1.71 6 .5a77.39 77.39 0 0 1 11-5.5c-2.667-.667-2.667-1.333 0-2a81.316 81.316 0 0 1-3-2.5Z" style="opacity:1"/><path fill="#fcfbf7" d="M395.5 559.5c11.052-.643 21.719.024 32 2v3c-2.766 4.617-4.766 9.617-6 15-3.797 7.275-6.797 14.942-9 23-1.774 1.381-3.274 1.048-4.5-1a171.156 171.156 0 0 0-7.5-17c-.763-3.637-2.097-6.97-4-10a103.216 103.216 0 0 0-3-9.5c1.115-1.235 1.115-2.402 0-3.5a31.147 31.147 0 0 0 2-2Z" style="opacity:1"/><path fill="#da9c66" d="M152.5 569.5a248.73 248.73 0 0 0-37-.5 209.74 209.74 0 0 1-11 3.5c3.924-2.485 8.257-4.318 13-5.5a156.422 156.422 0 0 1 25 0c3.633.149 6.966.982 10 2.5Z" style="opacity:1"/><path fill="#ddad7c" d="M367.5 567.5h22a20.69 20.69 0 0 0 1 5c-1.604-.787-2.271-2.12-2-4h-21v3c-2.281-1.532-2.281-2.866 0-4Z" style="opacity:1"/><path fill="#fcfbf4" d="M533.5 559.5a81.316 81.316 0 0 0 3 2.5c-2.667.667-2.667 1.333 0 2a77.39 77.39 0 0 0-11 5.5c-1.709-2.21-3.709-2.377-6-.5a4.457 4.457 0 0 1 2 1.5c-1.141.925-1.141 1.759 0 2.5l-3.5 3.5c-1.016-1.134-1.683-.801-2 1-.914-1.154-1.747-.987-2.5.5 1.122 1.613.622 2.78-1.5 3.5a151.904 151.904 0 0 0-6.5 27c-1.25-.077-2.083-.744-2.5-2l-1-15a291.239 291.239 0 0 1-1.5 19 163.638 163.638 0 0 1 3 22.5c-.924 1.15-.924 2.15 0 3-2.667.667-2.667 1.333 0 2-12.609 1.492-25.109 1.992-37.5 1.5-.717-.544-1.217-1.211-1.5-2h34v-76c-.111-.617-.444-1.117-1-1.5 11.995-.5 23.995-.667 36-.5Z" style="opacity:1"/><path fill="#ecbd89" d="M572.5 568.5c-12.409-1.632-24.743-1.299-37 1a38.715 38.715 0 0 1 5-2.5l13-.5c6.572-.18 12.905.486 19 2Z" style="opacity:1"/><path fill="#cf8137" d="m572.5 568.5 3 2c-16.083-2.341-31.75-.841-47 4.5a13.92 13.92 0 0 0-3 4 8.43 8.43 0 0 1-4 .5c3.858-4.534 8.525-7.867 14-10 12.257-2.299 24.591-2.632 37-1Z" style="opacity:1"/><path fill="#a89f91" d="M358.5 566.5c1.985.359 2.651 1.192 2 2.5.566.995 1.233 1.828 2 2.5 1.203 2.197 1.203 3.53 0 4a54.343 54.343 0 0 1-4-9Z" style="opacity:1"/><path fill="#faf4e2" d="M272.5 561.5v76h35c-.166-8.673 0-17.34.5-26 3.054-1.623 2.554-2.29-1.5-2v27h-33v-74c23.348-.235 46.681.099 70 1 3.269.384 6.103 1.718 8.5 4a22.981 22.981 0 0 0 2-5c.671.752 1.504 1.086 2.5 1 .432 1.21 1.099 2.21 2 3a54.343 54.343 0 0 0 4 9c-2.273 1.235-4.106.902-5.5-1 .858 8.823-.642 8.823-4.5 0a9.108 9.108 0 0 0-5-1c-.558-1.29-1.558-2.123-3-2.5-2.702-.84-5.368-1.673-8-2.5a429.028 429.028 0 0 0-58.5 0 684.92 684.92 0 0 0 .5 64c7.735 1.327 15.568 1.327 23.5 0 .182-8.578.682-17.078 1.5-25.5a12.494 12.494 0 0 1 7 0 82.844 82.844 0 0 1 9 5.5 238.932 238.932 0 0 0 12 17c.453.958 1.119 1.792 2 2.5a96.54 96.54 0 0 0 24-.5c-.775-1.896-1.775-3.563-3-5-2.377-5.447-5.71-10.114-10-14 2.772 1.934 4.605 1.267 5.5-2 2.128 4.122 4.961 7.622 8.5 10.5l-1 1 3.5 5.5c.705-2.486 1.538-2.486 2.5 0-.991 3.686.676 5.353 5 5v7a290.772 290.772 0 0 1-34-2c11.005.167 22.005 0 33-.5a9.454 9.454 0 0 1-1.5-2.5c-12.305 1.581-23.472 2.581-33.5 3-1.052 1.756-2.719 2.423-5 2 .094-3.041-1.406-4.707-4.5-5a26.67 26.67 0 0 0-1.5-6.5l1-1c-1.392-2.228-3.392-3.394-6-3.5-.047-3.428-1.213-6.428-3.5-9-.26 2.118-1.26 3.784-3 5-.2 4.253-.7 8.42-1.5 12.5.561 1.676 1.561 3.009 3 4-2.667.667-2.667 1.333 0 2l-2 1a322.652 322.652 0 0 0-40 .5c.764-13.676 1.431-27.51 2-41.5a188.323 188.323 0 0 0-2-25.5c.111-4.156 1.111-7.822 3-11Z" style="opacity:1"/><path fill="#f4c59c" d="M336.5 568.5a834.486 834.486 0 0 0-57.5 1 1983.68 1983.68 0 0 0-.5 63 684.92 684.92 0 0 1-.5-64 429.028 429.028 0 0 1 58.5 0Z" style="opacity:1"/><path fill="#f8eedb" d="M350.5 544.5c1.653 4.577 3.32 9.243 5 14a400.456 400.456 0 0 0 40 1 31.147 31.147 0 0 1-2 2c1.115 1.098 1.115 2.265 0 3.5a103.216 103.216 0 0 1 3 9.5c.372 3.797 1.706 7.13 4 10a206.226 206.226 0 0 0 8 22.5c1.148 1.726 2.315 1.559 3.5-.5a8.43 8.43 0 0 0 .5-4c2.203-8.058 5.203-15.725 9-23 3.741-4.206 5.741-9.206 6-15 10.745-1.942 21.745-2.609 33-2l-2 8c-.863 1.44-.863 2.774 0 4-2.067 1.727-3.733 3.727-5 6-1.385 1.074-2.551 2.407-3.5 4a1281.776 1281.776 0 0 0-10.5 26 142.769 142.769 0 0 0-13 26 298.696 298.696 0 0 1-34-1c.083-2.07 1.083-2.403 3-1 8.816-.612 17.482-1.279 26-2 1.548-.321 2.215-1.321 2-3a331.975 331.975 0 0 1 11.5-20 327.72 327.72 0 0 1 16.5-37c1.431-1.28 2.098-2.947 2-5-7.519-.325-14.852.008-22 1a468.716 468.716 0 0 0-18 45 18.473 18.473 0 0 0-3.5 2 26.416 26.416 0 0 1-4.5-4c-1.488-4.967-3.488-9.634-6-14 .268-1.599-.066-2.932-1-4a17.758 17.758 0 0 0-1.5-7 266.007 266.007 0 0 1-6.5-13v-1a20.69 20.69 0 0 1-1-5h-22c-.709-.904-1.709-1.237-3-1 .423 2.281-.244 3.948-2 5-.767-.672-1.434-1.505-2-2.5.651-1.308-.015-2.141-2-2.5v-4c43.181-.71 42.514-.71-2 0-4.365-5.085-6.365-11.085-6-18Z" style="opacity:1"/><path fill="#b2aa9b" d="M427.5 564.5c-.259 5.794-2.259 10.794-6 15 1.234-5.383 3.234-10.383 6-15Z" style="opacity:1"/><path fill="#e7ae7f" d="M431.5 568.5c7.148-.992 14.481-1.325 22-1 .098 2.053-.569 3.72-2 5v-4h-20Z" style="opacity:1"/><path fill="#d77926" d="M575.5 570.5c4.301.318 7.968 1.985 11 5 .942 2.92 2.276 5.586 4 8-6.41 2.559-12.744 2.559-19 0a11.743 11.743 0 0 0-3-5 69.066 69.066 0 0 1 8.5 6 127.13 127.13 0 0 0 9.5-2 3.647 3.647 0 0 0-1-1.5c-3.277.201-6.611.368-10 .5v-4a32.462 32.462 0 0 0 8-.5 154.46 154.46 0 0 1-8-6.5Z" style="opacity:1"/><path fill="#d48240" d="M568.5 578.5a11.743 11.743 0 0 1 3 5c-1.933-2.096-4.267-3.596-7-4.5a64.218 64.218 0 0 0-16 0c-1.82.2-3.153 1.034-4 2.5-3.054 2.053-5.387 4.719-7 8-.033-3.602 1.301-6.602 4-9a41.126 41.126 0 0 0 8-4.5 55.31 55.31 0 0 1 19 2.5Z" style="opacity:1"/><path fill="#df7823" d="M160.5 577.5c2.21.955 2.543 2.455 1 4.5-6.21 1.021-12.21.521-18-1.5-2.659-1.664-5.325-3.33-8-5-3.323-.862-6.823-1.528-10.5-2a13.021 13.021 0 0 0-5.5 2c1.552-2.459 3.885-3.959 7-4.5-3.388-.659-6.721-.492-10 .5.111-.617.444-1.117 1-1.5 13.93-1.44 27.596-.274 41 3.5-.271 1.88.396 3.213 2 4Z" style="opacity:1"/><path fill="#d17e35" d="M390.5 572.5v1l1 4c-4.352-6.164-10.352-8.497-18-7a15.894 15.894 0 0 1-1 6.5 52.435 52.435 0 0 0 5.5 10.5 925.816 925.816 0 0 1 3.5 13 197.643 197.643 0 0 1-14-29v-3h21c-.271 1.88.396 3.213 2 4Z" style="opacity:1"/><path fill="#9b978c" d="M396.5 574.5c1.903 3.03 3.237 6.363 4 10-2.294-2.87-3.628-6.203-4-10Z" style="opacity:1"/><path fill="#d59963" d="M159.5 574.5c3.134 1.214 5.134 3.547 6 7a44.093 44.093 0 0 0-3 2h-1a145.053 145.053 0 0 1-17-.5c-.752-.671-1.086-1.504-1-2.5 5.79 2.021 11.79 2.521 18 1.5 1.543-2.045 1.21-3.545-1-4.5a5.727 5.727 0 0 0-1-3Z" style="opacity:1"/><path fill="#e7b484" d="M390.5 573.5a266.007 266.007 0 0 0 6.5 13 17.758 17.758 0 0 1 1.5 7 61.665 61.665 0 0 0-5-10c-1.238-1.714-1.905-3.714-2-6l-1-4Z" style="opacity:1"/><path fill="#d28742" d="M431.5 568.5h20v4a327.72 327.72 0 0 0-16.5 37 331.975 331.975 0 0 0-11.5 20 520.764 520.764 0 0 1 7.5-16 113.466 113.466 0 0 0 3.5-14 18.473 18.473 0 0 0 3.5-2c2.489-7.938 5.989-15.271 10.5-22a9.86 9.86 0 0 0 1-6 145.053 145.053 0 0 0-17 .5 122.776 122.776 0 0 1-4 14.5c-.958.453-1.792 1.119-2.5 2a203.918 203.918 0 0 1-3.5 9c-3.192 5.178-4.692 10.845-4.5 17-.589 2.363-2.089 3.363-4.5 3v-2a468.716 468.716 0 0 1 18-45Z" style="opacity:1"/><path fill="#fcf9e9" d="M255.5 616.5h-39v-8h43v-20h-43v-5h46c.325-7.519-.008-14.852-1-22 .787-1.604 2.12-2.271 4-2-.511 6.719.156 13.219 2 19.5-.372 2.709-1.872 4.543-4.5 5.5-.684 1.284-.517 2.451.5 3.5-1.244.456-2.077-.044-2.5-1.5-.5 8.327-.666 16.66-.5 25-13.622-2.455-27.289-2.621-41-.5-1.537 1.11-2.203 2.61-2 4.5 12.148-2.033 24.482-2.533 37-1.5.752.671 1.086 1.504 1 2.5Z" style="opacity:1"/><path fill="#d29f6d" d="M586.5 575.5c2.755 1.928 5.089 4.428 7 7.5-6.254 3.281-12.921 4.281-20 3-.881-.708-1.547-1.542-2-2.5 6.256 2.559 12.59 2.559 19 0-1.724-2.414-3.058-5.08-4-8Z" style="opacity:1"/><path fill="#e67717" d="M434.5 599.5c-.79-1.109-1.29-2.442-1.5-4a7.248 7.248 0 0 1-2.5 2 9.86 9.86 0 0 1-1-6h-3c-.1-2.608.567-4.942 2-7a122.776 122.776 0 0 0 4-14.5 145.053 145.053 0 0 1 17-.5 9.86 9.86 0 0 1-1 6c-4.511 6.729-8.011 14.062-10.5 22a18.473 18.473 0 0 1-3.5 2Z" style="opacity:1"/><path fill="#fdf5e3" d="M596.5 531.5a434.541 434.541 0 0 1 12 25c23.657 1 47.324 1.333 71 1 2.448.973 5.115 1.306 8 1v3h-79v63a795.113 795.113 0 0 1-2-13.5c.192-17.768.192-35.601 0-53.5-1.299-.59-2.132-1.59-2.5-3a129.95 129.95 0 0 0-5.5-14c-.886.825-1.219 1.825-1 3h-4c.048-3.135 1.715-4.802 5-5-1.446-2.118-2.113-4.451-2-7Z" style="opacity:1"/><path fill="#998873" d="M158.5 587.5a84.902 84.902 0 0 1 13 .5c-3.317.498-6.65.665-10 .5a40.914 40.914 0 0 0-9 .5 22.981 22.981 0 0 1 5 2c-2.809.18-5.476-.487-8-2l-11-1c1.167-.5 2-1.333 2.5-2.5a9.454 9.454 0 0 0 2.5 1.5c4.989.499 9.989.666 15 .5Z" style="opacity:1"/><path fill="#ce7d36" d="M393.5 583.5a61.665 61.665 0 0 1 5 10c.934 1.068 1.268 2.401 1 4-1.624.14-2.79-.527-3.5-2-1.985-3.706-2.818-7.706-2.5-12Z" style="opacity:1"/><path fill="#fcfdfb" d="M561.5 613.5a84.902 84.902 0 0 1-13-.5l-3-3a7.293 7.293 0 0 0 3-2c-2.425-.293-4.258-1.459-5.5-3.5a40.914 40.914 0 0 1-.5-9 31.147 31.147 0 0 0 2-2c-.011.941.489 1.608 1.5 2a16.2 16.2 0 0 0 3.5-1.5c-1.146-2.557-.146-3.89 3-4 7.544-2.132 13.544-.132 18 6l-2 1 5 1c-3.044.359-3.378 1.026-1 2-.849 1.77-2.515 3.437-5 5l1 1-6 2.5a7.248 7.248 0 0 0 2 2.5c-1.442.377-2.442 1.21-3 2.5Z" style="opacity:1"/><path fill="#faf9f0" d="M567.5 475.5c1.93.271 3.264 1.271 4 3a642.999 642.999 0 0 1 25 53 6.846 6.846 0 0 0-4 1c-.565-2.01-1.565-3.676-3-5l-2.5-12a44.34 44.34 0 0 1-5-12l-3-3c.225 3.325-1.108 5.658-4 7-.824-3.382-.657-6.716.5-10a3.647 3.647 0 0 1 1.5 1c.223-6.146-1.777-7.146-6-3a2047.17 2047.17 0 0 0-.5 64h4a84.902 84.902 0 0 1 .5-13c.499 4.655.666 9.321.5 14 2.882-1.369 5.382-.702 7.5 2a42.36 42.36 0 0 1 8.5-1.5c2.821-5.558 3.488-11.391 2-17.5h4c-.219-1.175.114-2.175 1-3a129.95 129.95 0 0 1 5.5 14c.368 1.41 1.201 2.41 2.5 3 .192 17.899.192 35.732 0 53.5a795.113 795.113 0 0 0 2 13.5v13h81v-22c-15.703.651-31.036-.016-46-2 15.382.128 30.716.294 46 .5a13.92 13.92 0 0 1 3 4 494.559 494.559 0 0 1-2 9.5c.523 3.989.856 7.989 1 12h-85c-.272-6.235-.605-12.568-1-19h-5c-.514 2.198-1.514 4.198-3 6 1.662 1.811 1.828 3.478.5 5a3.647 3.647 0 0 0-1.5-1c-2.598 2.193-4.431 4.86-5.5 8l-2-2c-5.538 2.284-11.371 3.784-17.5 4.5a94.818 94.818 0 0 0-9 6.5c-1.647-.778-2.98-1.944-4-3.5a90.354 90.354 0 0 0-15-2l1-1c-.916-.278-1.582-.778-2-1.5h7c10.252 1.741 20.252.407 30-4l2 1a87.19 87.19 0 0 1 6.5-6c.423 1.456 1.256 1.956 2.5 1.5a3.647 3.647 0 0 1-1-1.5 134.216 134.216 0 0 0 9-10.5 9.454 9.454 0 0 1-2.5-1.5 46.664 46.664 0 0 0-2.5-9c-1.679.215-2.679-.452-3-2a238.244 238.244 0 0 0-19-4v4a41.73 41.73 0 0 0-1 9c-2.778-.478-4.778.522-6 3-5 1.333-10 1.333-15 0a3.647 3.647 0 0 0-1-1.5c4.539-.253 9.039-.753 13.5-1.5a3.943 3.943 0 0 1 2 1 6.978 6.978 0 0 1 2.5-3.5 12.93 12.93 0 0 0-5-.5c.558-1.29 1.558-2.123 3-2.5a7.248 7.248 0 0 1-2-2.5l6-2.5-1-1c2.485-1.563 4.151-3.23 5-5-2.378-.974-2.044-1.641 1-2l-5-1 2-1c-4.456-6.132-10.456-8.132-18-6-3.146.11-4.146 1.443-3 4a16.2 16.2 0 0 1-3.5 1.5c-1.011-.392-1.511-1.059-1.5-2a31.147 31.147 0 0 1-2 2 812.705 812.705 0 0 0-2 11 57.15 57.15 0 0 1-1-15 19.602 19.602 0 0 0 2-3.5 15.256 15.256 0 0 0 4.5-1.5l1 1c1.731-2.117 3.898-3.617 6.5-4.5a28.717 28.717 0 0 1 13 .5c-.42 1.826-.42 3.826 0 6 2.459-.19 4.126.81 5 3-.03.997.47 1.664 1.5 2a12.992 12.992 0 0 1 5.5-1 5.576 5.576 0 0 1 3 1 11.38 11.38 0 0 0 2-2.5 75.565 75.565 0 0 0 16-2 14.972 14.972 0 0 1 3-3.5c-1.02-1.932-1.187-3.932-.5-6 .654 1.196 1.154 1.196 1.5 0-4.014-1.949-7.181-4.949-9.5-9 .077 1.238-.089 2.238-.5 3a10.756 10.756 0 0 0-3-2.5l2-1c-1.493-1.368-2.993-1.535-4.5-.5a120.342 120.342 0 0 0-10.5-8c-2.634 1.016-5.3 1.016-8 0l-5-2c1.291.237 2.291-.096 3-1 .951-1.419 1.284-3.085 1-5v-64a5.727 5.727 0 0 1-1-3c1.788.285 3.455-.048 5-1a62.517 62.517 0 0 1-5-11Z" style="opacity:1"/><path fill="#fafbf5" d="M159.5 558.5c.111.617.444 1.117 1 1.5 4.253.2 8.42.7 12.5 1.5 2.228-1.613 4.728-2.28 7.5-2a52.985 52.985 0 0 1-3 9.5c.053 3.091 1.219 5.591 3.5 7.5 1.05 17.068.55 34.068-1.5 51 .117 2.55 1.117 4.55 3 6v2a6.846 6.846 0 0 1-4-1c-1.102 5.743-3.102 6.243-6 1.5-3.211-.798-6.211-.298-9 1.5-1.419-.505-2.085-1.505-2-3 2.27-4.123 5.604-6.123 10-6 2.191-1.708 2.524-3.708 1-6l3-2c1.519-11.599-2.647-20.599-12.5-27a27.603 27.603 0 0 0-1.5-5c3.35.165 6.683-.002 10-.5a84.902 84.902 0 0 0-13-.5c.647-1.641 1.647-2.974 3-4h7c.169-2.412-.497-4.579-2-6.5.51-1.826 1.344-1.993 2.5-.5-.379-1.575-.212-3.075.5-4.5a30.563 30.563 0 0 1-12-6c1.607-1.049 2.273-2.549 2-4.5a84.902 84.902 0 0 1-13-.5 4.457 4.457 0 0 1-2-1.5 57.15 57.15 0 0 1 15-1Z" style="opacity:1"/><path fill="#d67c31" d="M152.5 569.5c3.358.348 5.692 2.014 7 5 .61.891.943 1.891 1 3-1.604-.787-2.271-2.12-2-4-13.404-3.774-27.07-4.94-41-3.5-.556.383-.889.883-1 1.5a18.453 18.453 0 0 0-6 .5c-9.724 4.165-12.224 10.998-7.5 20.5 3.895 1.332 6.728-.001 8.5-4a6.846 6.846 0 0 1 4-1c.365-3.246-.635-5.912-3-8a14.72 14.72 0 0 1 5-1.5c.566-.995 1.233-1.828 2-2.5a13.021 13.021 0 0 1 5.5-2c3.677.472 7.177 1.138 10.5 2a98.432 98.432 0 0 0-14 .5c-4.826 3.623-5.159 7.623-1 12a1417.61 1417.61 0 0 1 15 4.5c-6.242.809-11.909-.358-17-3.5a12.93 12.93 0 0 0-5-.5v5c-2.286.095-4.286.762-6 2a31.686 31.686 0 0 1-6-2 6.546 6.546 0 0 1-3-3c-.382-4.867.285-9.534 2-14l4-4a209.74 209.74 0 0 0 11-3.5 248.73 248.73 0 0 1 37 .5Z" style="opacity:1"/><path fill="#e87718" d="M119.5 575.5c-.767.672-1.434 1.505-2 2.5a14.72 14.72 0 0 0-5 1.5c2.365 2.088 3.365 4.754 3 8a6.846 6.846 0 0 0-4 1c-1.772 3.999-4.605 5.332-8.5 4-4.724-9.502-2.224-16.335 7.5-20.5a18.453 18.453 0 0 1 6-.5c3.279-.992 6.612-1.159 10-.5-3.115.541-5.448 2.041-7 4.5Z" style="opacity:1"/><path fill="#d0874d" d="M336.5 568.5c2.632.827 5.298 1.66 8 2.5 1.442.377 2.442 1.21 3 2.5 2.315 1.084 4.148 2.751 5.5 5 .667 4 .667 8 0 12-.383.556-.883.889-1.5 1a31.337 31.337 0 0 0 .5-12 3841.473 3841.473 0 0 0-7-6 81.041 81.041 0 0 1-9.5-3.5c-18-.667-36-.667-54 0-1.763 7.012-2.429 14.178-2 21.5v40h21c-7.148.992-14.481 1.325-22 1-.167-21.003 0-42.003.5-63a834.486 834.486 0 0 1 57.5-1Z" style="opacity:1"/><path fill="#cb7d37" d="M351.5 591.5c-1.206 2.798-3.206 4.965-6 6.5-2.177 1.202-4.511 1.702-7 1.5 1.72-1.364 3.72-2.364 6-3 1.259-3.27 3.592-4.937 7-5Z" style="opacity:1"/><path fill="#8c8472" d="M571.5 592.5c2.559-.302 4.893.032 7 1a12.992 12.992 0 0 0-5.5 1c-1.03-.336-1.53-1.003-1.5-2Z" style="opacity:1"/><path fill="#9f9a90" d="M453.5 580.5a307.958 307.958 0 0 1-14 30 1281.776 1281.776 0 0 1 10.5-26c.949-1.593 2.115-2.926 3.5-4Z" style="opacity:1"/><path fill="#d08845" d="M521.5 579.5c-4.146 9.851-5.646 20.184-4.5 31 1.871 1.497 2.871 3.497 3 6 4.1 2.871 7.267 6.537 9.5 11-13.904-8.799-18.738-21.465-14.5-38 2.223-2.223 3.556-4.889 4-8 .708-.881 1.542-1.547 2.5-2Z" style="opacity:1"/><path fill="#eab17b" d="M544.5 581.5c-.898 2.405-2.398 4.405-4.5 6a8.43 8.43 0 0 0-.5 4c-.768.763-1.268 1.763-1.5 3a60.931 60.931 0 0 0-.5 11c-.979-3.125-1.313-6.458-1-10-.175-2.121.159-4.121 1-6 1.613-3.281 3.946-5.947 7-8Z" style="opacity:1"/><path fill="#f9f6ee" d="M374.5 598.5c.755 4.086 2.421 7.753 5 11a54.703 54.703 0 0 1 4 11.5c-.556.383-.889.883-1 1.5-.716.283-1.549.616-2.5 1-.456-1.244.044-2.077 1.5-2.5a4.934 4.934 0 0 0-3-.5 4.934 4.934 0 0 1-.5 3c-.121-2.227-.954-4.06-2.5-5.5 3.289-1.077 3.789-2.91 1.5-5.5-.654 1.196-1.154 1.196-1.5 0 1.283-2.344 1.283-5.01 0-8h-5v3h-3c.229-1.933 1.062-3.6 2.5-5 .497-2.31.663-4.643.5-7h-3c-.189-4.2-1.689-7.867-4.5-11a78.068 78.068 0 0 1-4.5 18c.688 2.218-.312 3.718-3 4.5a32.867 32.867 0 0 1 4 9 3.647 3.647 0 0 0-1 1.5c1.667 1 3 2.333 4 4a14.587 14.587 0 0 0 4-6 168.028 168.028 0 0 1 2 6.5c-2.715.961-4.382 2.794-5 5.5-.962-2.486-1.795-2.486-2.5 0l-3.5-5.5 1-1c-3.539-2.878-6.372-6.378-8.5-10.5-.895 3.267-2.728 3.934-5.5 2 0-.667-.333-1-1-1l-1-2c-.986-2.016-2.653-3.349-5-4 1.321-2.215 3.154-3.882 5.5-5 3.587 1.268 7.087.934 10.5-1 .801-2.633 2.467-4.467 5-5.5a3.647 3.647 0 0 1-1-1.5 107.29 107.29 0 0 1 4-12.5c2.612-.741 4.278.259 5 3 2.124 5.073 4.791 10.239 8 15.5Z" style="opacity:1"/><path fill="#c1baa8" d="M590.5 607.5c-6.411 2.203-12.244 1.203-17.5-3-.232 1.237-.732 2.237-1.5 3v-4a238.244 238.244 0 0 1 19 4Z" style="opacity:1"/><path fill="#e4771a" d="M351.5 591.5c-3.408.063-5.741 1.73-7 5-2.28.636-4.28 1.636-6 3-4.825-.012-6.991 2.321-6.5 7 2.818 3.839 6.652 5.506 11.5 5 .667 0 1 .333 1 1 4.29 3.886 7.623 8.553 10 14 .466 1.701.466 3.201 0 4.5-6.514.82-12.847.653-19-.5a256.471 256.471 0 0 1-11.5-15c-.854-2.907-.021-5.24 2.5-7-1.989-1.115-3.822-.782-5.5 1-5.769-7.123-12.769-8.79-21-5l-1 25a88.665 88.665 0 0 1-18.5 1 380.934 380.934 0 0 0-1-39c-.429-7.322.237-14.488 2-21.5 18-.667 36-.667 54 0a81.041 81.041 0 0 0 9.5 3.5c2.341 2.002 4.675 4.002 7 6 .607 4.037.44 8.037-.5 12Z" style="opacity:1"/><path fill="#db995d" d="M301.5 576.5c6.854-.324 13.521.009 20 1h-20v18c7.674.166 15.341 0 23-.5.744-1.039 1.744-1.539 3-1.5l-2 3a132.419 132.419 0 0 1-25 .5 11.295 11.295 0 0 1-2-4c.494-5.725 1.494-11.225 3-16.5Z" style="opacity:1"/><path fill="#f8f3de" d="M321.5 577.5c9.286 2.437 11.286 7.771 6 16-1.256-.039-2.256.461-3 1.5-7.659.5-15.326.666-23 .5v-18h20Z" style="opacity:1"/><path fill="#938877" d="M306.5 581.5a98.432 98.432 0 0 1 14 .5 84.902 84.902 0 0 1-13 .5v8a98.432 98.432 0 0 1 14 .5 112.97 112.97 0 0 1-15 .5v-10Z" style="opacity:1"/><path fill="#d0843b" d="m325.5 596.5 2-3c5.286-8.229 3.286-13.563-6-16-6.479-.991-13.146-1.324-20-1 .763-.768 1.763-1.268 3-1.5 6-.667 12-.667 18 0 3.701 1.446 6.867 3.613 9.5 6.5 2.327 7.165.161 12.165-6.5 15Z" style="opacity:1"/><path fill="#cf7d35" d="M279.5 591.5a380.934 380.934 0 0 1 1 39 88.665 88.665 0 0 0 18.5-1l1-25c8.231-3.79 15.231-2.123 21 5 1.678-1.782 3.511-2.115 5.5-1-2.521 1.76-3.354 4.093-2.5 7a256.471 256.471 0 0 0 11.5 15l-4-1a238.932 238.932 0 0 1-12-17c-.011-1.517-.677-2.684-2-3.5-4.707-3.742-10.04-5.076-16-4a179.674 179.674 0 0 0-1 26.5h-21v-40Z" style="opacity:1"/><path fill="#958a77" d="M89.5 609.5c5.81-.99 11.81-1.323 18-1h12a17.65 17.65 0 0 1 .5 6c-1.009-1.525-1.509-3.192-1.5-5h-29Z" style="opacity:1"/><path fill="#f9d8b0" d="M319.5 612.5a82.844 82.844 0 0 0-9-5.5 12.494 12.494 0 0 0-7 0 337.816 337.816 0 0 0-1.5 25.5c-7.932 1.327-15.765 1.327-23.5 0 7.519.325 14.852-.008 22-1a179.674 179.674 0 0 1 1-26.5c5.96-1.076 11.293.258 16 4 1.323.816 1.989 1.983 2 3.5Z" style="opacity:1"/><path fill="#cf8641" d="M536.5 595.5c-.313 3.542.021 6.875 1 10 .231 7.849 3.897 13.183 11 16-3.692.529-6.858-.471-9.5-3-.249-2.677-1.249-5.01-3-7-.817-5.516-.651-10.85.5-16Z" style="opacity:1"/><path fill="#d18641" d="M338.5 599.5c-3.392 1.467-4.725 4.134-4 8 2.841.06 5.507.726 8 2l1 2c-4.848.506-8.682-1.161-11.5-5-.491-4.679 1.675-7.012 6.5-7Z" style="opacity:1"/><path fill="#e37819" d="M391.5 577.5c.095 2.286.762 4.286 2 6-.318 4.294.515 8.294 2.5 12 .71 1.473 1.876 2.14 3.5 2a246.091 246.091 0 0 1 3.5 15c.671.752 1.504 1.086 2.5 1 1.903 3.143 4.57 3.81 8 2-.47 3.434.696 6.101 3.5 8 1.765-.732 2.932-2.065 3.5-4a8.905 8.905 0 0 1 4 3c.934-2.767 1.6-5.6 2-8.5a167.34 167.34 0 0 0-4-10.5h4c-.478 2.778.522 4.778 3 6 1.399-5.569.066-10.402-4-14.5-1.077-.47-2.077-.303-3 .5a203.918 203.918 0 0 0 3.5-9c.708-.881 1.542-1.547 2.5-2-1.433 2.058-2.1 4.392-2 7h3a9.86 9.86 0 0 0 1 6 7.248 7.248 0 0 0 2.5-2c.21 1.558.71 2.891 1.5 4a113.466 113.466 0 0 1-3.5 14 520.764 520.764 0 0 0-7.5 16 107.918 107.918 0 0 1-25 .5 82.888 82.888 0 0 1-7-8.5c-1.367-7.2-4.367-13.533-9-19-.838-.342-1.172-1.008-1-2a925.816 925.816 0 0 0-3.5-13 52.435 52.435 0 0 1-5.5-10.5 15.894 15.894 0 0 0 1-6.5c7.648-1.497 13.648.836 18 7Z" style="opacity:1"/><path fill="#d3894e" d="M399.5 597.5c2.512 4.366 4.512 9.033 6 14v2c-.996.086-1.829-.248-2.5-1a246.091 246.091 0 0 0-3.5-15Z" style="opacity:1"/><path fill="#978c81" d="M400.5 584.5a171.156 171.156 0 0 1 7.5 17c1.226 2.048 2.726 2.381 4.5 1a8.43 8.43 0 0 1-.5 4c-1.185 2.059-2.352 2.226-3.5.5a206.226 206.226 0 0 1-8-22.5Z" style="opacity:1"/><path fill="#f3e9d4" d="M96.5 579.5c-.384 3.989.283 7.655 2 11a6.546 6.546 0 0 0 3 3c2.702 3.004 6.036 5.338 10 7 2.541.381 4.874 1.214 7 2.5 2.982.498 5.982.665 9 .5l16 4c1 1.667 2.333 3 4 4a18.453 18.453 0 0 1-.5 6 27.563 27.563 0 0 0-3.5 6h-1c-10.176 3.049-19.009 1.049-26.5-6a8.43 8.43 0 0 1-.5-4h-21a30.735 30.735 0 0 0 4.5 12c1.843 1.671 4.009 2.671 6.5 3 .558 1.29 1.558 2.123 3 2.5a70.523 70.523 0 0 0 9 1.5c.418.722 1.084 1.222 2 1.5l12 .5c5.917.195 11.584-.471 17-2 8.577-2.072 15.411-6.738 20.5-14 1.461-8.941-1.706-15.774-9.5-20.5a581.568 581.568 0 0 1-12-4l-12-1.5a1417.61 1417.61 0 0 0-15-4.5c-4.159-4.377-3.826-8.377 1-12a98.432 98.432 0 0 1 14-.5c2.675 1.67 5.341 3.336 8 5-.086.996.248 1.829 1 2.5 5.657.499 11.324.666 17 .5-1.353 1.026-2.353 2.359-3 4a112.97 112.97 0 0 1-15-.5 9.454 9.454 0 0 1-2.5-1.5c-.5 1.167-1.333 2-2.5 2.5l11 1c2.524 1.513 5.191 2.18 8 2a22.981 22.981 0 0 0-5-2 40.914 40.914 0 0 1 9-.5 27.603 27.603 0 0 1 1.5 5c9.853 6.401 14.019 15.401 12.5 27l-3 2c1.524 2.292 1.191 4.292-1 6-4.396-.123-7.73 1.877-10 6h-4a183.257 183.257 0 0 1-18 5c-4.667 1.333-9.333 1.333-14 0-3.474-1.025-7.14-1.692-11-2-6.114-2.268-12.114-4.101-18-5.5a4.458 4.458 0 0 0 2-1.5c-.774-1.211-1.607-1.211-2.5 0-1.388-4.053-3.888-7.22-7.5-9.5a56.278 56.278 0 0 1 1-11.5h29c-.009 1.808.491 3.475 1.5 5a17.65 17.65 0 0 0-.5-6h-12c.528-1.347.695-2.681.5-4a44.136 44.136 0 0 0-6.5-.5c-1.333-1-1.333-2 0-3l-4.5-3.5-1 2a8.435 8.435 0 0 1-.5-4c-2.442.146-3.11-.687-2-2.5a9.465 9.465 0 0 1-1.5-2.5c-1.556.705-2.723.039-3.5-2a140.274 140.274 0 0 1 5-14 3.647 3.647 0 0 0 1.5-1c.333 1.547-.167 2.88-1.5 4 .505 1.419 1.505 2.085 3 2Z" style="opacity:1"/><path fill="#918674" d="M130.5 610.5c-.709-.904-1.709-1.237-3-1-.763-.768-1.763-1.268-3-1.5 3.485-.297 6.818.369 10 2a8.43 8.43 0 0 1-4 .5Z" style="opacity:1"/><path fill="peru" d="M127.5 603.5a45.902 45.902 0 0 1 15 1.5c.752.671 1.086 1.504 1 2.5l-16-4Z" style="opacity:1"/><path fill="#d88e4d" d="M101.5 593.5a31.686 31.686 0 0 0 6 2 81.316 81.316 0 0 0 3 2.5c6.25.923 11.916 2.756 17 5.5a40.914 40.914 0 0 1-9-.5c-2.126-1.286-4.459-2.119-7-2.5-3.964-1.662-7.298-3.996-10-7Z" style="opacity:1"/><path fill="#8f917b" d="M126.5 584.5c2.82-.252 5.486.248 8 1.5-2.919.433-5.586-.067-8-1.5Z" style="opacity:1"/><path fill="#d2a166" d="M100.5 576.5c-1.715 4.466-2.382 9.133-2 14-1.717-3.345-2.384-7.011-2-11h1c.6-1.4 1.6-2.4 3-3Z" style="opacity:1"/><path fill="#908580" d="M134.5 581.5c2.88-1.305 4.38-.305 4.5 3-1.129-1.641-2.629-2.641-4.5-3Z" style="opacity:1"/><path fill="#a0998a" d="M126.5 584.5c-2.666.434-3.833-.566-3.5-3 3.262-1.341 3.762-1.008 1.5 1a31.147 31.147 0 0 1 2 2Z" style="opacity:1"/><path fill="#d9a26c" d="M587.5 612.5a73.314 73.314 0 0 0-12-1c-.122 2.792-1.456 4.792-4 6a19.49 19.49 0 0 0 3-7c3.35-.165 6.683.002 10 .5 1.237.232 2.237.732 3 1.5Z" style="opacity:1"/><path fill="#fafaf4" d="M127.5 609.5c1.291-.237 2.291.096 3 1a2.428 2.428 0 0 0-2 .5 11.532 11.532 0 0 1 3.5 4.5c.677-2.189 1.844-2.522 3.5-1a18.08 18.08 0 0 0 3.5-2c2.152 1.777 1.985 3.277-.5 4.5l1 1c-4.625 1.662-9.292 1.829-14 .5-1.798-.631-3.131-1.798-4-3.5a56.738 56.738 0 0 0 1.5-6.5l1 2c1.011-.837 2.178-1.17 3.5-1Z" style="opacity:1"/><path fill="#e47718" d="M575.5 570.5a154.46 154.46 0 0 0 8 6.5 32.462 32.462 0 0 1-8 .5v4c3.389-.132 6.723-.299 10-.5.457.414.791.914 1 1.5a127.13 127.13 0 0 1-9.5 2 69.066 69.066 0 0 0-8.5-6 55.31 55.31 0 0 0-19-2.5 41.126 41.126 0 0 1-8 4.5c-2.699 2.398-4.033 5.398-4 9-.841 1.879-1.175 3.879-1 6-1.151 5.15-1.317 10.484-.5 16 1.751 1.99 2.751 4.323 3 7 2.642 2.529 5.808 3.529 9.5 3 .342.838 1.008 1.172 2 1 8.467 4.308 15.467 2.641 21-5 2.544-1.208 3.878-3.208 4-6 4.034.005 8.034.338 12 1 .683 1.676 2.017 2.343 4 2v6c-1.207.689-2.541.855-4 .5-1.796 4.296-4.796 7.463-9 9.5a41.541 41.541 0 0 1-8 1c-8.995.708-17.995.875-27 .5a606.76 606.76 0 0 1-14-4.5c-2.233-4.463-5.4-8.129-9.5-11-.129-2.503-1.129-4.503-3-6-1.146-10.816.354-21.149 4.5-31a8.43 8.43 0 0 0 4-.5 13.92 13.92 0 0 1 3-4c15.25-5.341 30.917-6.841 47-4.5Z" style="opacity:1"/><path fill="#c68f50" d="M587.5 612.5c2.306.493 4.639.826 7 1-.052 2.846-1.052 5.18-3 7v-6c-1.983.343-3.317-.324-4-2Z" style="opacity:1"/><path fill="#d5965a" d="M382.5 602.5c4.633 5.467 7.633 11.8 9 19a204.564 204.564 0 0 1-6.5-11 37.914 37.914 0 0 1-2.5-8Z" style="opacity:1"/><path fill="#fbcfa1" d="M405.5 611.5a26.416 26.416 0 0 0 4.5 4 18.473 18.473 0 0 1 3.5-2v2c-3.43 1.81-6.097 1.143-8-2v-2Z" style="opacity:1"/><path fill="#958a79" d="M687.5 561.5c.992 7.148 1.325 14.481 1 22-15.371-.65-30.371.016-45 2v3h42v20h-42v5c14.964 1.984 30.297 2.651 46 2v22h-81v-76h79Z" style="opacity:1"/><path fill="#fbfcf3" d="M609.5 568.5c1.25.077 2.083.744 2.5 2a960.77 960.77 0 0 1 0 62c-.671-.752-1.504-1.086-2.5-1v-63Z" style="opacity:1"/><path fill="#fcf4de" d="M609.5 631.5c.996-.086 1.829.248 2.5 1a960.77 960.77 0 0 0 0-62c-.417-1.256-1.25-1.923-2.5-2v-6h78v20h-45v7h42v18h-42v9h46v20h-79v-5Z" style="opacity:1"/><path fill="#e0a975" d="M678.5 594.5c.977 2.787 1.31 5.787 1 9a420.766 420.766 0 0 0-41 1c-1.325 5.401-1.325 10.901 0 16.5 14.329.5 28.663.667 43 .5h3c.313 3.542-.021 6.875-1 10v-9c-15.67.167-31.337 0-47-.5a88.665 88.665 0 0 1-1-18.5l2-1h41v-8Z" style="opacity:1"/><path fill="#c77733" d="M635.5 582.5c-.293 3.937.04 7.77 1 11.5 13.996.5 27.996.667 42 .5v8h-41a400.456 400.456 0 0 1 40-1c.239-1.967-.094-3.801-1-5.5l-41-1c-1.322-4.267-1.322-8.434 0-12.5Z" style="opacity:1"/><path fill="#e6ad76" d="M635.5 578.5h2v15c13.844-.329 27.51.004 41 1-14.004.167-28.004 0-42-.5-.96-3.73-1.293-7.563-1-11.5v-4Z" style="opacity:1"/><path fill="#eebb90" d="M682.5 577.5c.277-2.948-.056-5.781-1-8.5-21.997-.5-43.997-.667-66-.5v7a784.68 784.68 0 0 0-1 56 1024.542 1024.542 0 0 1-1-64h70c.313 3.542-.021 6.875-1 10Z" style="opacity:1"/><path fill="#de771b" d="M636.5 578.5h-1v-3a623.107 623.107 0 0 0 44-1v-3c-2.25-.319-4.25.181-6 1.5a446.265 446.265 0 0 0-51 2.5c-.952-1.545-1.285-3.212-1-5h-4v5h3a1877.524 1877.524 0 0 1 1.5 47c1.011.837 2.178 1.17 3.5 1-.17-6.027-.337-12.027-.5-18 4.091 2.785 5.924 6.785 5.5 12-2.308 4.364-.975 6.364 4 6 15.67-.167 31.337 0 47 .5.923 2.041 1.256 4.208 1 6.5-22.408.322-44.742-.011-67-1v-57c.904-.709 1.237-1.709 1-3 21.003-.167 42.003 0 63 .5 1.532 2.33 1.198 4.33-1 6-14.369-.153-28.369.68-42 2.5Z" style="opacity:1"/><path fill="#e87618" d="M635.5 578.5v4c-1.322 4.066-1.322 8.233 0 12.5l41 1c.906 1.699 1.239 3.533 1 5.5a400.456 400.456 0 0 0-40 1l-2 1c-.617.111-1.117.444-1.5 1a79.42 79.42 0 0 0 .5 19c-4.975.364-6.308-1.636-4-6 .424-5.215-1.409-9.215-5.5-12 .163 5.973.33 11.973.5 18-1.322.17-2.489-.163-3.5-1a1877.524 1877.524 0 0 0-1.5-47h-3v-5h4c-.285 1.788.048 3.455 1 5a446.265 446.265 0 0 1 51-2.5c1.75-1.319 3.75-1.819 6-1.5v3a623.107 623.107 0 0 1-44 1v3Z" style="opacity:1"/><path fill="#d18041" d="M682.5 577.5a507.055 507.055 0 0 0-45 1h-1c13.631-1.82 27.631-2.653 42-2.5 2.198-1.67 2.532-3.67 1-6a1983.68 1983.68 0 0 0-63-.5c.237 1.291-.096 2.291-1 3v-4c22.003-.167 44.003 0 66 .5.944 2.719 1.277 5.552 1 8.5Z" style="opacity:1"/><path fill="#e57818" d="M135.5 592.5a256.74 256.74 0 0 1 23 7.5 16.84 16.84 0 0 0 6 4.5c1.35 3.577 1.85 7.244 1.5 11-2.223 2.223-3.556 4.889-4 8-1.941 2.37-4.441 3.703-7.5 4-1.929-.269-3.595.231-5 1.5a42.479 42.479 0 0 1-13 0l-1-1c1.937-.122 3.27-.955 4-2.5l3-2h1c4.428-3.07 5.762-7.07 4-12-1.667-1-3-2.333-4-4 .086-.996-.248-1.829-1-2.5a45.902 45.902 0 0 0-15-1.5c-5.084-2.744-10.75-4.577-17-5.5a81.316 81.316 0 0 1-3-2.5c1.714-1.238 3.714-1.905 6-2v-5a12.93 12.93 0 0 1 5 .5c5.091 3.142 10.758 4.309 17 3.5Z" style="opacity:1"/><path fill="#e87713" d="M413.5 615.5c2.411.363 3.911-.637 4.5-3-.192-6.155 1.308-11.822 4.5-17 .923-.803 1.923-.97 3-.5 4.066 4.098 5.399 8.931 4 14.5-2.478-1.222-3.478-3.222-3-6h-4a167.34 167.34 0 0 1 4 10.5c-.4 2.9-1.066 5.733-2 8.5a8.905 8.905 0 0 0-4-3c-.568 1.935-1.735 3.268-3.5 4-2.804-1.899-3.97-4.566-3.5-8Z" style="opacity:1"/><path fill="#928878" d="M498.5 561.5v76h-34v-3c-.043-24.5-.043-48.833 0-73h34Z" style="opacity:1"/><path fill="#fdfaf2" d="M465.5 568.5h3c-1.37 4.805-2.037 9.805-2 15a268.303 268.303 0 0 1 2 40h-3v-55Z" style="opacity:1"/><path fill="#f0e3cb" d="M367.5 567.5c-2.281 1.134-2.281 2.468 0 4a197.643 197.643 0 0 0 14 29c-.172.992.162 1.658 1 2a37.914 37.914 0 0 0 2.5 8 204.564 204.564 0 0 0 6.5 11 30.153 30.153 0 0 0 5 10.5c8.327.5 16.66.666 25 .5-8.518.721-17.184 1.388-26 2-1.917-1.403-2.917-1.07-3 1a57.857 57.857 0 0 1-5-9 6.802 6.802 0 0 0-3-1.5c.951-.718 1.117-1.551.5-2.5-.77 1.098-1.603 1.098-2.5 0 .111-.617.444-1.117 1-1.5a54.703 54.703 0 0 0-4-11.5c-.408-4.358-2.074-8.024-5-11-3.209-5.261-5.876-10.427-8-15.5-.722-2.741-2.388-3.741-5-3a107.29 107.29 0 0 0-4 12.5 3.647 3.647 0 0 0 1 1.5c-2.533 1.033-4.199 2.867-5 5.5-3.413 1.934-6.913 2.268-10.5 1-2.346 1.118-4.179 2.785-5.5 5 2.347.651 4.014 1.984 5 4-2.493-1.274-5.159-1.94-8-2-.725-3.866.608-6.533 4-8 2.489.202 4.823-.298 7-1.5 2.794-1.535 4.794-3.702 6-6.5.617-.111 1.117-.444 1.5-1 .667-4 .667-8 0-12-1.352-2.249-3.185-3.916-5.5-5a9.108 9.108 0 0 1 5 1c3.858 8.823 5.358 8.823 4.5 0 1.394 1.902 3.227 2.235 5.5 1 1.203-.47 1.203-1.803 0-4 1.756-1.052 2.423-2.719 2-5 1.291-.237 2.291.096 3 1Z" style="opacity:1"/><path fill="#aba59a" d="M374.5 598.5c2.926 2.976 4.592 6.642 5 11-2.579-3.247-4.245-6.914-5-11Z" style="opacity:1"/><path fill="#d18f55" d="m142.5 623.5-3 2a128.507 128.507 0 0 1-16-.5c-.971-1.481-2.304-2.315-4-2.5-2.383-1.385-4.05-3.385-5-6-5.81-.99-11.81-1.323-18-1v3h3a18.437 18.437 0 0 0 .5 6c2.463.532 4.297 1.866 5.5 4-2.491-.329-4.657-1.329-6.5-3a30.735 30.735 0 0 1-4.5-12h21a8.43 8.43 0 0 0 .5 4c7.491 7.049 16.324 9.049 26.5 6Z" style="opacity:1"/><path fill="#feeabf" d="M638.5 604.5a84.902 84.902 0 0 0 .5 13c.374.916.874 1.75 1.5 2.5 13.839.169 27.506.669 41 1.5-14.337.167-28.671 0-43-.5-1.325-5.599-1.325-11.099 0-16.5Z" style="opacity:1"/><path fill="#e87715" d="M114.5 616.5c.95 2.615 2.617 4.615 5 6-.17 1.322.163 2.489 1 3.5a34.099 34.099 0 0 1 6 3 35.063 35.063 0 0 1-15-1c.054-1.351-.446-2.518-1.5-3.5-2.581 1.64-4.748 1.306-6.5-1a10.258 10.258 0 0 1 4-1.5c-3.621-.178-6.288-1.845-8-5a112.97 112.97 0 0 1 15-.5Z" style="opacity:1"/><path fill="#da9a5d" d="M147.5 611.5c1.762 4.93.428 8.93-4 12a27.563 27.563 0 0 1 3.5-6c.495-1.973.662-3.973.5-6Z" style="opacity:1"/><path fill="#d38940" d="M571.5 617.5c-5.533 7.641-12.533 9.308-21 5a98.432 98.432 0 0 0 14-.5c2.051-2.02 4.384-3.52 7-4.5Z" style="opacity:1"/><path fill="#d59a67" d="M591.5 620.5c-2.296 3.013-4.962 5.846-8 8.5-1.525 1.009-3.192 1.509-5 1.5 4.204-2.037 7.204-5.204 9-9.5 1.459.355 2.793.189 4-.5Z" style="opacity:1"/><path fill="#e97614" d="M617.5 623.5c2.229.555 3.895 1.889 5 4a625.088 625.088 0 0 1 50-3c2.48.915 3.147 2.415 2 4.5-18.997.5-37.997.667-57 .5v-6Z" style="opacity:1"/><path fill="#cb8645" d="m135.5 592.5 12 1.5a581.568 581.568 0 0 0 12 4c7.794 4.726 10.961 11.559 9.5 20.5-5.089 7.262-11.923 11.928-20.5 14-9.156 1.158-18.156 1.158-27 0 6.009.166 12.009-.001 18-.5 3.813-1.262 7.813-1.929 12-2 1.442-.377 2.442-1.21 3-2.5 3.059-.297 5.559-1.63 7.5-4 .444-3.111 1.777-5.777 4-8 .35-3.756-.15-7.423-1.5-11a16.84 16.84 0 0 1-6-4.5 256.74 256.74 0 0 0-23-7.5Z" style="opacity:1"/><path fill="#d97924" d="M114.5 616.5a112.97 112.97 0 0 0-15 .5c1.712 3.155 4.379 4.822 8 5a10.258 10.258 0 0 0-4 1.5c1.752 2.306 3.919 2.64 6.5 1 1.054.982 1.554 2.149 1.5 3.5a35.063 35.063 0 0 0 15 1 34.099 34.099 0 0 0-6-3c-.837-1.011-1.17-2.178-1-3.5 1.696.185 3.029 1.019 4 2.5 5.323.499 10.656.666 16 .5-.73 1.545-2.063 2.378-4 2.5l1 1c4.333.667 8.667.667 13 0 1.405-1.269 3.071-1.769 5-1.5-.558 1.29-1.558 2.123-3 2.5-4.187.071-8.187.738-12 2-5.991.499-11.991.666-18 .5h-4a70.523 70.523 0 0 1-9-1.5c-1.442-.377-2.442-1.21-3-2.5-1.203-2.134-3.037-3.468-5.5-4a18.437 18.437 0 0 1-.5-6h-3v-3c6.19-.323 12.19.01 18 1Z" style="opacity:1"/><path fill="#cb8846" d="M391.5 621.5a82.888 82.888 0 0 0 7 8.5c8.412.801 16.745.634 25-.5.215 1.679-.452 2.679-2 3-8.34.166-16.673 0-25-.5a30.153 30.153 0 0 1-5-10.5Z" style="opacity:1"/><path fill="#c8752d" d="M635.5 603.5a88.665 88.665 0 0 0 1 18.5c15.663.5 31.33.667 47 .5v9c-23.025.656-45.691-.01-68-2 22.258.989 44.592 1.322 67 1 .256-2.292-.077-4.459-1-6.5-15.663-.5-31.33-.667-47-.5a79.42 79.42 0 0 1-.5-19c.383-.556.883-.889 1.5-1Z" style="opacity:1"/><path fill="#cd975c" d="M354.5 626.5c1.225 1.437 2.225 3.104 3 5a96.54 96.54 0 0 1-24 .5c-.881-.708-1.547-1.542-2-2.5l4 1c6.153 1.153 12.486 1.32 19 .5.466-1.299.466-2.799 0-4.5Z" style="opacity:1"/><path fill="#d39257" d="M529.5 627.5a606.76 606.76 0 0 0 14 4.5c9.005.375 18.005.208 27-.5-.418.722-1.084 1.222-2 1.5-5.991.499-11.991.666-18 .5a66.755 66.755 0 0 1-14-1.5c-2.656-1.161-4.989-2.661-7-4.5Z" style="opacity:1"/><path fill="#d7985b" d="M615.5 575.5v54c22.309 1.99 44.975 2.656 68 2-23 1.333-46 1.333-69 0a784.68 784.68 0 0 1 1-56Z" style="opacity:1"/><path fill="#f1c99d" d="M117.5 632.5h4c8.844 1.158 17.844 1.158 27 0-5.416 1.529-11.083 2.195-17 2l-12-.5c-.916-.278-1.582-.778-2-1.5Z" style="opacity:1"/><path fill="#efc59c" d="M578.5 630.5c-2.71 1.608-5.71 2.775-9 3.5-6.514.82-12.847.653-19-.5 6.009.166 12.009-.001 18-.5.916-.278 1.582-.778 2-1.5a41.541 41.541 0 0 0 8-1Z" style="opacity:1"/><path fill="#fdf7e2" d="M465.5 623.5h3a268.303 268.303 0 0 0-2-40c-.037-5.195.63-10.195 2-15h-3v-6h32v74h-32v-13Z" style="opacity:1"/><path fill="#cf8e4f" d="M471.5 568.5v63c6.19.323 12.19-.01 18-1 .667 0 1-.333 1-1a931.31 931.31 0 0 0 1-61 992.742 992.742 0 0 1 1 63c-7.148.992-14.481 1.325-22 1-.331-21.507.003-42.84 1-64Z" style="opacity:1"/><path fill="#eabb8d" d="M492.5 631.5a992.742 992.742 0 0 0-1-63h-20a1024.542 1024.542 0 0 0-1 64 1056.868 1056.868 0 0 1-1-65h24c.331 21.507-.003 42.84-1 64Z" style="opacity:1"/><path fill="#da7720" d="M471.5 568.5h20a931.31 931.31 0 0 1-1 61c.167-19.336 0-38.67-.5-58-1.356-.88-2.856-1.214-4.5-1v3h-4v-3h-8c2.06 16.694 3.06 34.361 3 53a21.127 21.127 0 0 1 9 1c-3.899 1.492-7.565 1.158-11-1a13.116 13.116 0 0 0-1 7h16c-5.81.99-11.81 1.323-18 1v-63Z" style="opacity:1"/><path fill="#e67718" d="M490.5 629.5c0 .667-.333 1-1 1h-16a13.116 13.116 0 0 1 1-7c3.435 2.158 7.101 2.492 11 1a21.127 21.127 0 0 0-9-1c.06-18.639-.94-36.306-3-53h8v3h4v-3c1.644-.214 3.144.12 4.5 1 .5 19.33.667 38.664.5 58Z" style="opacity:1"/><path fill="#958b7a" d="M257.5 561.5h4c.992 7.148 1.325 14.481 1 22h-46v5h43v20h-43v8h48v21h-82v-4c-.331-23.839.002-47.506 1-71a1369.272 1369.272 0 0 1 74-1Z" style="opacity:1"/><path fill="#fcf4df" d="M183.5 562.5h78v20h-46v7h43v18h-43v10h48v19h-80v-74Z" style="opacity:1"/><path fill="#d89e65" d="M210.5 621.5h48c.315 3.871-.018 7.538-1 11-22.839.331-45.506-.003-68-1 22.692.656 45.025-.011 67-2 .968-2.107 1.302-4.441 1-7a552.805 552.805 0 0 1-47-1Z" style="opacity:1"/><path fill="#d87925" d="M210.5 602.5v19a552.805 552.805 0 0 0 47 1c.302 2.559-.032 4.893-1 7a515.326 515.326 0 0 1-64 0c20.336.167 40.669 0 61-.5 2.045-.93 2.879-2.43 2.5-4.5a395.731 395.731 0 0 1-48.5.5c1.016-.519 1.682-1.353 2-2.5a78.515 78.515 0 0 1-1-11c.017-3.413.684-6.413 2-9Z" style="opacity:1"/><path fill="#e8b280" d="M211.5 578.5v15c14.004-.167 28.004 0 42 .5 1.333 3 1.333 6 0 9-13.996.5-27.996.667-42 .5v18h-1v-19h42v-8h-41c-.667 0-1-.333-1-1-.321-5.195.013-10.195 1-15Z" style="opacity:1"/><path fill="#c57533" d="M211.5 594.5h41v8h-42a420.766 420.766 0 0 1 41-1v-6a400.456 400.456 0 0 1-40-1Z" style="opacity:1"/><path fill="#c77b3d" d="M255.5 567.5c.979 3.125 1.313 6.458 1 10h-45c0-.667.333-1 1-1h43v-7c-21.507-.331-42.84.003-64 1-.617.111-1.117.444-1.5 1-.667 19-.667 38 0 57 .671.752 1.504 1.086 2.5 1a515.326 515.326 0 0 0 64 0c-21.975 1.989-44.308 2.656-67 2a992.742 992.742 0 0 1-1-63c22.506.331 44.84-.003 67-1Z" style="opacity:1"/><path fill="#ce7a31" d="M211.5 577.5v1c-.987 4.805-1.321 9.805-1 15-1.722-3.927-2.722-8.261-3-13 .783-1.788 2.116-2.788 4-3Z" style="opacity:1"/><path fill="#e67718" d="M191.5 570.5h63v5a405.513 405.513 0 0 1-36.5-1c-2.295.047-4.129.713-5.5 2-.667 0-1 .333-1 1-1.884.212-3.217 1.212-4 3 .278 4.739 1.278 9.073 3 13 0 .667.333 1 1 1a400.456 400.456 0 0 0 40 1v6a420.766 420.766 0 0 0-41 1c-1.316 2.587-1.983 5.587-2 9a78.515 78.515 0 0 0 1 11c-.318 1.147-.984 1.981-2 2.5 16.241.824 32.407.658 48.5-.5.379 2.07-.455 3.57-2.5 4.5-20.331.5-40.664.667-61 .5-.996.086-1.829-.248-2.5-1-.667-19-.667-38 0-57 .383-.556.883-.889 1.5-1Z" style="opacity:1"/><path fill="#e9ba92" d="M255.5 567.5c-22.16.997-44.494 1.331-67 1a992.742 992.742 0 0 0 1 63c22.494.997 45.161 1.331 68 1a1225.063 1225.063 0 0 1-70 1v-66h68Z" style="opacity:1"/><path fill="#d97424" d="M191.5 570.5c21.16-.997 42.493-1.331 64-1v7h-43c1.371-1.287 3.205-1.953 5.5-2a405.513 405.513 0 0 0 36.5 1v-5h-63Z" style="opacity:1"/><path fill="#918b7c" d="M334.5 637.5h-2c10.028-.419 21.195-1.419 33.5-3 .374.916.874 1.75 1.5 2.5-10.995.5-21.995.667-33 .5Z" style="opacity:1"/><path fill="#938d7f" d="M439.5 610.5a228.498 228.498 0 0 1-12 26l-17.5 1c-6.207-.004-12.04-.671-17.5-2a298.696 298.696 0 0 0 34 1 142.769 142.769 0 0 1 13-26Z" style="opacity:1"/><path fill="#f0e7d9" d="M264.5 616.5a2.428 2.428 0 0 1 2 .5c-.244 7.384-.577 14.884-1 22.5a422.867 422.867 0 0 0-57 0 3120.62 3120.62 0 0 1-26-2h82v-21Z" style="opacity:1"/><path fill="#ccc4b6" d="M157.5 634.5c1.92 1.321 2.087 2.654.5 4-1.309-2.391-2.309-2.391-3 0-1.635-1.349-3.135-1.182-4.5.5a60.931 60.931 0 0 1-11 .5 183.257 183.257 0 0 0 18-5Z" style="opacity:1"/><path fill="#d0cbbb" d="M532.5 634.5c5.023 1.699 10.69 3.365 17 5h-7c-2.865.445-5.365-.222-7.5-2a3.647 3.647 0 0 1-1.5 1c.095-1.191-.238-2.525-1-4Z" style="opacity:1"/><path fill="#bab5a7" d="M114.5 637.5c3.86.308 7.526.975 11 2a19.048 19.048 0 0 0-6 1 32.175 32.175 0 0 1-5-3Z" style="opacity:1"/></svg>